<?xml version="1.0" encoding="UTF-8" standalone="no"?><svg xmlns="http://www.w3.org/2000/svg" xmlns:xlink="http://www.w3.org/1999/xlink" contentStyleType="text/css" height="100px" preserveAspectRatio="none" style="width:851px;height:100px;background:#FFFFFF;" version="1.1" viewBox="0 0 851 100" width="851px" zoomAndPan="magnify"><defs/><g><line style="stroke:#333333;stroke-width:0.5;" x1="10" x2="10" y1="10" y2="69.0679"/><line style="stroke:#333333;stroke-width:0.5;" x1="781.25" x2="781.25" y1="10" y2="69.0679"/><line style="stroke:#333333;stroke-width:0.5;stroke-dasharray:3.0,5.0;" x1="126.25" x2="126.25" y1="10" y2="69.0679"/><line style="stroke:#333333;stroke-width:0.5;stroke-dasharray:3.0,5.0;" x1="176.25" x2="176.25" y1="10" y2="69.0679"/><line style="stroke:#333333;stroke-width:0.5;stroke-dasharray:3.0,5.0;" x1="226.25" x2="226.25" y1="10" y2="69.0679"/><line style="stroke:#333333;stroke-width:0.5;stroke-dasharray:3.0,5.0;" x1="276.25" x2="276.25" y1="10" y2="69.0679"/><line style="stroke:#333333;stroke-width:0.5;stroke-dasharray:3.0,5.0;" x1="326.25" x2="326.25" y1="10" y2="69.0679"/><line style="stroke:#333333;stroke-width:0.5;stroke-dasharray:3.0,5.0;" x1="376.25" x2="376.25" y1="10" y2="69.0679"/><line style="stroke:#333333;stroke-width:0.5;stroke-dasharray:3.0,5.0;" x1="426.25" x2="426.25" y1="10" y2="69.0679"/><line style="stroke:#333333;stroke-width:0.5;stroke-dasharray:3.0,5.0;" x1="476.25" x2="476.25" y1="10" y2="69.0679"/><line style="stroke:#333333;stroke-width:0.5;stroke-dasharray:3.0,5.0;" x1="526.25" x2="526.25" y1="10" y2="69.0679"/><line style="stroke:#333333;stroke-width:0.5;stroke-dasharray:3.0,5.0;" x1="576.25" x2="576.25" y1="10" y2="69.0679"/><line style="stroke:#333333;stroke-width:0.5;stroke-dasharray:3.0,5.0;" x1="626.25" x2="626.25" y1="10" y2="69.0679"/><line style="stroke:#333333;stroke-width:0.5;stroke-dasharray:3.0,5.0;" x1="676.25" x2="676.25" y1="10" y2="69.0679"/><line style="stroke:#333333;stroke-width:0.5;stroke-dasharray:3.0,5.0;" x1="726.25" x2="726.25" y1="10" y2="69.0679"/><line style="stroke:#333333;stroke-width:0.5;stroke-dasharray:3.0,5.0;" x1="776.25" x2="776.25" y1="10" y2="69.0679"/><line style="stroke:#333333;stroke-width:0.5;" x1="10" x2="781.25" y1="10" y2="10"/><text fill="#333333" font-family="sans-serif" font-size="14" font-weight="bold" lengthAdjust="spacing" textLength="228.25" x="15" y="24.9659">Last message received (minutes)</text><line style="stroke:#333333;stroke-width:0.5;" x1="10" x2="244.25" y1="30.0679" y2="30.0679"/><line style="stroke:#333333;stroke-width:0.5;" x1="244.25" x2="254.25" y1="30.0679" y2="10"/><polygon fill="#E2E2F0" points="15,35.0679,114.25,35.0679,126.25,47.0679,114.25,59.0679,15,59.0679" style="stroke:#E2E2F0;stroke-width:1.5;"/><path d="M15,35.0679 L114.25,35.0679 L126.25,47.0679 L114.25,59.0679 L15,59.0679 " fill="#E2E2F0" style="stroke:#006400;stroke-width:1.5;"/><text fill="#333333" font-family="sans-serif" font-size="12" font-weight="bold" lengthAdjust="spacing" textLength="87.25" x="27" y="51.7239">minium critical</text><polygon fill="#E2E2F0" points="138.25,35.0679,364.25,35.0679,376.25,47.0679,364.25,59.0679,138.25,59.0679,126.25,47.0679" style="stroke:#006400;stroke-width:1.5;"/><polygon fill="#E2E2F0" points="388.25,35.0679,464.25,35.0679,476.25,47.0679,464.25,59.0679,388.25,59.0679,376.25,47.0679" style="stroke:#006400;stroke-width:1.5;"/><polygon fill="#E2E2F0" points="488.25,35.0679,714.25,35.0679,726.25,47.0679,714.25,59.0679,488.25,59.0679,476.25,47.0679" style="stroke:#006400;stroke-width:1.5;"/><polygon fill="#E2E2F0" points="738.25,35.0679,776.25,35.0679,776.25,59.0679,738.25,59.0679,726.25,47.0679" style="stroke:#E2E2F0;stroke-width:1.5;"/><path d="M776.25,35.0679 L738.25,35.0679 L726.25,47.0679 L738.25,59.0679 L776.25,59.0679 " fill="#E2E2F0" style="stroke:#006400;stroke-width:1.5;"/><text fill="#333333" font-family="sans-serif" font-size="12" font-weight="bold" lengthAdjust="spacing" textLength="107.25" x="197.625" y="51.7239">minimum warning</text><text fill="#333333" font-family="sans-serif" font-size="12" font-weight="bold" lengthAdjust="spacing" textLength="14.75" x="418.875" y="51.7239">ok</text><text fill="#333333" font-family="sans-serif" font-size="12" font-weight="bold" lengthAdjust="spacing" textLength="110.25" x="546.125" y="51.7239">maximum warning</text><text fill="#333333" font-family="sans-serif" font-size="12" font-weight="bold" lengthAdjust="spacing" textLength="101.625" x="738.25" y="51.7239">maximum critical</text><line style="stroke:#333333;stroke-width:2.0;" x1="426.25" x2="426.25" y1="69.0679" y2="74.0679"/><line style="stroke:#333333;stroke-width:2.0;" x1="476.25" x2="476.25" y1="69.0679" y2="74.0679"/><line style="stroke:#333333;stroke-width:2.0;" x1="526.25" x2="526.25" y1="69.0679" y2="74.0679"/><line style="stroke:#333333;stroke-width:2.0;" x1="576.25" x2="576.25" y1="69.0679" y2="74.0679"/><line style="stroke:#333333;stroke-width:2.0;" x1="626.25" x2="626.25" y1="69.0679" y2="74.0679"/><line style="stroke:#333333;stroke-width:2.0;" x1="676.25" x2="676.25" y1="69.0679" y2="74.0679"/><line style="stroke:#333333;stroke-width:2.0;" x1="726.25" x2="726.25" y1="69.0679" y2="74.0679"/><line style="stroke:#333333;stroke-width:2.0;" x1="776.25" x2="776.25" y1="69.0679" y2="74.0679"/><line style="stroke:#333333;stroke-width:2.0;" x1="426.25" x2="776.25" y1="69.0679" y2="69.0679"/><text fill="#333333" font-family="sans-serif" font-size="11" lengthAdjust="spacing" textLength="28" x="112.25" y="86.8268">-1440</text><text fill="#333333" font-family="sans-serif" font-size="11" lengthAdjust="spacing" textLength="22" x="365.25" y="86.8268">-240</text><text fill="#333333" font-family="sans-serif" font-size="11" lengthAdjust="spacing" textLength="6" x="423.25" y="86.8268">0</text><text fill="#333333" font-family="sans-serif" font-size="11" lengthAdjust="spacing" textLength="18" x="467.25" y="86.8268">240</text><text fill="#333333" font-family="sans-serif" font-size="11" lengthAdjust="spacing" textLength="24" x="714.25" y="86.8268">1440</text><!--MD5=[4bd12737afcf9a6cb63102ed516ca092]
@startuml
concise "Last message received (minutes)" as LM
LM is "minium critical"
@LM
-1440 is "minimum warning"
-240 is "ok"
240 is "maximum warning"
1440 is "maximum critical"

@enduml

PlantUML version 1.2022.13(Sat Nov 19 14:22:17 CET 2022)
(GPL source distribution)
Java Runtime: OpenJDK Runtime Environment
JVM: OpenJDK 64-Bit Server VM
Default Encoding: UTF-8
Language: de
Country: DE
--></g></svg>