<?xml version="1.0" encoding="UTF-8" standalone="no"?><svg xmlns="http://www.w3.org/2000/svg" xmlns:xlink="http://www.w3.org/1999/xlink" contentStyleType="text/css" height="1263px" preserveAspectRatio="none" style="width:665px;height:1263px;background:#FFFFFF;" version="1.1" viewBox="0 0 665 1263" width="665px" zoomAndPan="magnify"><defs><filter height="300%" id="f12w4b7x5rbw2c" width="300%" x="-1" y="-1"><feGaussianBlur result="blurOut" stdDeviation="2.0"/><feColorMatrix in="blurOut" result="blurOut2" type="matrix" values="0 0 0 0 0 0 0 0 0 0 0 0 0 0 0 0 0 0 .4 0"/><feOffset dx="4.0" dy="4.0" in="blurOut2" result="blurOut3"/><feBlend in="SourceGraphic" in2="blurOut3" mode="normal"/></filter></defs><g><!--MD5=[4f1f3706c1a355a8488e154afcaed5df]
class Location--><g id="elem_Location"><rect codeLine="5" fill="#FFF1D9" filter="url(#f12w4b7x5rbw2c)" height="67.0679" id="Location" rx="5" ry="5" style="stroke:#181818;stroke-width:0.5;" width="90" x="209.5" y="7"/><rect fill="#FFD080" height="32" rx="5" ry="5" style="stroke:#FFD080;stroke-width:0.5;" width="90" x="209.5" y="7"/><rect fill="#FFD080" height="5" style="stroke:#FFD080;stroke-width:0.5;" width="90" x="209.5" y="34"/><rect codeLine="5" fill="none" height="67.0679" id="Location" rx="5" ry="5" style="stroke:#181818;stroke-width:0.5;" width="90" x="209.5" y="7"/><ellipse cx="224.5" cy="23" fill="#ADD1B2" rx="11" ry="11" style="stroke:#181818;stroke-width:1.0;"/><path d="M224.6094,18.2813 Q223.6875,18.2813 222.9531,18.5938 Q222.2344,18.9063 221.7344,19.5 Q221.2344,20.0781 220.9531,20.9531 Q220.6875,21.8281 220.6875,22.9219 Q220.6875,24.3594 221.125,25.4063 Q221.5781,26.4531 222.4219,27 Q223.2813,27.5469 224.5938,27.5469 Q225.375,27.5469 226.0625,27.4219 Q226.7656,27.2813 227.7656,26.9688 L227.7656,28.8438 Q226.9063,29.1719 226.1406,29.2969 Q225.3906,29.4219 224.375,29.4219 Q222.4531,29.4219 221.1406,28.625 Q219.8438,27.8125 219.1875,26.3438 Q218.5313,24.8594 218.5313,22.8906 Q218.5313,21.4688 218.9219,20.2969 Q219.3281,19.1094 220.1094,18.2344 Q220.8906,17.3594 222.0313,16.8906 Q223.1719,16.4063 224.6406,16.4063 Q225.5938,16.4063 226.4844,16.6094 Q227.3906,16.7969 228.3281,17.2656 L227.5,19.0469 Q226.7188,18.6719 226.0625,18.4844 Q225.4063,18.2813 224.6094,18.2813 Z " fill="#000000"/><text fill="#000000" font-family="sans-serif" font-size="14" lengthAdjust="spacing" textLength="58" x="238.5" y="28.432">Location</text><line style="stroke:#181818;stroke-width:0.5;" x1="210.5" x2="298.5" y1="39" y2="39"/><text fill="#000000" font-family="sans-serif" font-size="14" lengthAdjust="spacing" textLength="9" x="215.5" y="57.9659">...</text><line style="stroke:#181818;stroke-width:0.5;" x1="210.5" x2="298.5" y1="66.0679" y2="66.0679"/></g><!--MD5=[c62846c0c9715c1d98dd5933e5913037]
class Host--><g id="elem_Host"><rect codeLine="8" fill="#FFF1D9" filter="url(#f12w4b7x5rbw2c)" height="67.0679" id="Host" rx="5" ry="5" style="stroke:#181818;stroke-width:0.5;" width="64" x="222.5" y="134"/><rect fill="#FFD080" height="32" rx="5" ry="5" style="stroke:#FFD080;stroke-width:0.5;" width="64" x="222.5" y="134"/><rect fill="#FFD080" height="5" style="stroke:#FFD080;stroke-width:0.5;" width="64" x="222.5" y="161"/><rect codeLine="8" fill="none" height="67.0679" id="Host" rx="5" ry="5" style="stroke:#181818;stroke-width:0.5;" width="64" x="222.5" y="134"/><ellipse cx="237.5" cy="150" fill="#ADD1B2" rx="11" ry="11" style="stroke:#181818;stroke-width:1.0;"/><path d="M237.6094,145.2813 Q236.6875,145.2813 235.9531,145.5938 Q235.2344,145.9063 234.7344,146.5 Q234.2344,147.0781 233.9531,147.9531 Q233.6875,148.8281 233.6875,149.9219 Q233.6875,151.3594 234.125,152.4063 Q234.5781,153.4531 235.4219,154 Q236.2813,154.5469 237.5938,154.5469 Q238.375,154.5469 239.0625,154.4219 Q239.7656,154.2813 240.7656,153.9688 L240.7656,155.8438 Q239.9063,156.1719 239.1406,156.2969 Q238.3906,156.4219 237.375,156.4219 Q235.4531,156.4219 234.1406,155.625 Q232.8438,154.8125 232.1875,153.3438 Q231.5313,151.8594 231.5313,149.8906 Q231.5313,148.4688 231.9219,147.2969 Q232.3281,146.1094 233.1094,145.2344 Q233.8906,144.3594 235.0313,143.8906 Q236.1719,143.4063 237.6406,143.4063 Q238.5938,143.4063 239.4844,143.6094 Q240.3906,143.7969 241.3281,144.2656 L240.5,146.0469 Q239.7188,145.6719 239.0625,145.4844 Q238.4063,145.2813 237.6094,145.2813 Z " fill="#000000"/><text fill="#000000" font-family="sans-serif" font-size="14" lengthAdjust="spacing" textLength="32" x="251.5" y="155.432">Host</text><line style="stroke:#181818;stroke-width:0.5;" x1="223.5" x2="285.5" y1="166" y2="166"/><text fill="#000000" font-family="sans-serif" font-size="14" lengthAdjust="spacing" textLength="9" x="228.5" y="184.9659">...</text><line style="stroke:#181818;stroke-width:0.5;" x1="223.5" x2="285.5" y1="193.0679" y2="193.0679"/></g><!--MD5=[9a4e82909ed2a34282a01ef45d4a08d6]
class SoftwareConnection--><g id="elem_SoftwareConnection"><rect codeLine="11" fill="#FFF1D9" filter="url(#f12w4b7x5rbw2c)" height="67.0679" id="SoftwareConnection" rx="5" ry="5" style="stroke:#181818;stroke-width:0.5;" width="167" x="322" y="134"/><rect fill="#FFD080" height="32" rx="5" ry="5" style="stroke:#FFD080;stroke-width:0.5;" width="167" x="322" y="134"/><rect fill="#FFD080" height="5" style="stroke:#FFD080;stroke-width:0.5;" width="167" x="322" y="161"/><rect codeLine="11" fill="none" height="67.0679" id="SoftwareConnection" rx="5" ry="5" style="stroke:#181818;stroke-width:0.5;" width="167" x="322" y="134"/><ellipse cx="337" cy="150" fill="#ADD1B2" rx="11" ry="11" style="stroke:#181818;stroke-width:1.0;"/><path d="M337.1094,145.2813 Q336.1875,145.2813 335.4531,145.5938 Q334.7344,145.9063 334.2344,146.5 Q333.7344,147.0781 333.4531,147.9531 Q333.1875,148.8281 333.1875,149.9219 Q333.1875,151.3594 333.625,152.4063 Q334.0781,153.4531 334.9219,154 Q335.7813,154.5469 337.0938,154.5469 Q337.875,154.5469 338.5625,154.4219 Q339.2656,154.2813 340.2656,153.9688 L340.2656,155.8438 Q339.4063,156.1719 338.6406,156.2969 Q337.8906,156.4219 336.875,156.4219 Q334.9531,156.4219 333.6406,155.625 Q332.3438,154.8125 331.6875,153.3438 Q331.0313,151.8594 331.0313,149.8906 Q331.0313,148.4688 331.4219,147.2969 Q331.8281,146.1094 332.6094,145.2344 Q333.3906,144.3594 334.5313,143.8906 Q335.6719,143.4063 337.1406,143.4063 Q338.0938,143.4063 338.9844,143.6094 Q339.8906,143.7969 340.8281,144.2656 L340,146.0469 Q339.2188,145.6719 338.5625,145.4844 Q337.9063,145.2813 337.1094,145.2813 Z " fill="#000000"/><text fill="#000000" font-family="sans-serif" font-size="14" lengthAdjust="spacing" textLength="135" x="351" y="155.432">SoftwareConnection</text><line style="stroke:#181818;stroke-width:0.5;" x1="323" x2="488" y1="166" y2="166"/><text fill="#000000" font-family="sans-serif" font-size="14" lengthAdjust="spacing" textLength="9" x="328" y="184.9659">...</text><line style="stroke:#181818;stroke-width:0.5;" x1="323" x2="488" y1="193.0679" y2="193.0679"/></g><!--MD5=[c60af77fe5573b84a4aa4bce89659574]
class Server--><g id="elem_Server"><rect codeLine="15" fill="#FFF1D9" filter="url(#f12w4b7x5rbw2c)" height="314.9508" id="Server" rx="5" ry="5" style="stroke:#181818;stroke-width:0.5;" width="229" x="216" y="261"/><rect fill="#FFD080" height="32" rx="5" ry="5" style="stroke:#FFD080;stroke-width:0.5;" width="229" x="216" y="261"/><rect fill="#FFD080" height="5" style="stroke:#FFD080;stroke-width:0.5;" width="229" x="216" y="288"/><rect codeLine="15" fill="none" height="314.9508" id="Server" rx="5" ry="5" style="stroke:#181818;stroke-width:0.5;" width="229" x="216" y="261"/><ellipse cx="305.75" cy="277" fill="#ADD1B2" rx="11" ry="11" style="stroke:#181818;stroke-width:1.0;"/><path d="M305.8594,272.2813 Q304.9375,272.2813 304.2031,272.5938 Q303.4844,272.9063 302.9844,273.5 Q302.4844,274.0781 302.2031,274.9531 Q301.9375,275.8281 301.9375,276.9219 Q301.9375,278.3594 302.375,279.4063 Q302.8281,280.4531 303.6719,281 Q304.5313,281.5469 305.8438,281.5469 Q306.625,281.5469 307.3125,281.4219 Q308.0156,281.2813 309.0156,280.9688 L309.0156,282.8438 Q308.1563,283.1719 307.3906,283.2969 Q306.6406,283.4219 305.625,283.4219 Q303.7031,283.4219 302.3906,282.625 Q301.0938,281.8125 300.4375,280.3438 Q299.7813,278.8594 299.7813,276.8906 Q299.7813,275.4688 300.1719,274.2969 Q300.5781,273.1094 301.3594,272.2344 Q302.1406,271.3594 303.2813,270.8906 Q304.4219,270.4063 305.8906,270.4063 Q306.8438,270.4063 307.7344,270.6094 Q308.6406,270.7969 309.5781,271.2656 L308.75,273.0469 Q307.9688,272.6719 307.3125,272.4844 Q306.6563,272.2813 305.8594,272.2813 Z " fill="#000000"/><text fill="#000000" font-family="sans-serif" font-size="14" lengthAdjust="spacing" textLength="41" x="326.25" y="282.432">Server</text><line style="stroke:#181818;stroke-width:0.5;" x1="217" x2="444" y1="293" y2="293"/><text fill="#000000" font-family="sans-serif" font-size="14" lengthAdjust="spacing" textLength="47" x="222" y="311.9659">host_id</text><text fill="#000000" font-family="sans-serif" font-size="14" lengthAdjust="spacing" textLength="81" x="222" y="331.0339">name: string</text><text fill="#000000" font-family="sans-serif" font-size="14" lengthAdjust="spacing" textLength="63" x="222" y="350.1018">uid: string</text><text fill="#000000" font-family="sans-serif" font-size="14" lengthAdjust="spacing" textLength="106" x="222" y="369.1697">description: text</text><text fill="#000000" font-family="sans-serif" font-size="14" lengthAdjust="spacing" textLength="85" x="222" y="388.2376">api_url: string</text><text fill="#000000" font-family="sans-serif" font-size="14" lengthAdjust="spacing" textLength="97" x="222" y="407.3055">api_user: string</text><text fill="#000000" font-family="sans-serif" font-size="14" lengthAdjust="spacing" textLength="194" x="222" y="426.3734">api_password_ciphertext: text</text><text fill="#000000" font-family="sans-serif" font-size="14" lengthAdjust="spacing" textLength="217" x="222" y="445.4414">api_user_has_full_access: boolean</text><text fill="#000000" font-family="sans-serif" font-size="14" lengthAdjust="spacing" textLength="143" x="222" y="464.5093">api_verify_ssl: boolean</text><text fill="#000000" font-family="sans-serif" font-size="14" lengthAdjust="spacing" textLength="110" x="222" y="483.5772">properties: jsonb</text><text fill="#000000" font-family="sans-serif" font-size="14" lengthAdjust="spacing" textLength="211" x="222" y="502.6451">last_channel_update: timestamp</text><text fill="#000000" font-family="sans-serif" font-size="14" lengthAdjust="spacing" textLength="146" x="222" y="521.713">last_check: timestamp</text><text fill="#000000" font-family="sans-serif" font-size="14" lengthAdjust="spacing" textLength="168" x="222" y="540.7809">last_check_ok: timestamp</text><text fill="#000000" font-family="sans-serif" font-size="14" lengthAdjust="spacing" textLength="160" x="222" y="559.8489">manual_update: boolean</text><line style="stroke:#181818;stroke-width:0.5;" x1="217" x2="444" y1="567.9508" y2="567.9508"/></g><!--MD5=[1e4e6ac1845d89d680410515caa0c0ac]
class Channel--><g id="elem_Channel"><rect codeLine="32" fill="#FFF1D9" filter="url(#f12w4b7x5rbw2c)" height="105.2038" id="Channel" rx="5" ry="5" style="stroke:#181818;stroke-width:0.5;" width="123" x="7" y="779"/><rect fill="#FFD080" height="32" rx="5" ry="5" style="stroke:#FFD080;stroke-width:0.5;" width="123" x="7" y="779"/><rect fill="#FFD080" height="5" style="stroke:#FFD080;stroke-width:0.5;" width="123" x="7" y="806"/><rect codeLine="32" fill="none" height="105.2038" id="Channel" rx="5" ry="5" style="stroke:#181818;stroke-width:0.5;" width="123" x="7" y="779"/><ellipse cx="39.55" cy="795" fill="#ADD1B2" rx="11" ry="11" style="stroke:#181818;stroke-width:1.0;"/><path d="M39.6594,790.2813 Q38.7375,790.2813 38.0031,790.5938 Q37.2844,790.9063 36.7844,791.5 Q36.2844,792.0781 36.0031,792.9531 Q35.7375,793.8281 35.7375,794.9219 Q35.7375,796.3594 36.175,797.4063 Q36.6281,798.4531 37.4719,799 Q38.3313,799.5469 39.6438,799.5469 Q40.425,799.5469 41.1125,799.4219 Q41.8156,799.2813 42.8156,798.9688 L42.8156,800.8438 Q41.9563,801.1719 41.1906,801.2969 Q40.4406,801.4219 39.425,801.4219 Q37.5031,801.4219 36.1906,800.625 Q34.8938,799.8125 34.2375,798.3438 Q33.5813,796.8594 33.5813,794.8906 Q33.5813,793.4688 33.9719,792.2969 Q34.3781,791.1094 35.1594,790.2344 Q35.9406,789.3594 37.0813,788.8906 Q38.2219,788.4063 39.6906,788.4063 Q40.6438,788.4063 41.5344,788.6094 Q42.4406,788.7969 43.3781,789.2656 L42.55,791.0469 Q41.7688,790.6719 41.1125,790.4844 Q40.4563,790.2813 39.6594,790.2813 Z " fill="#000000"/><text fill="#000000" font-family="sans-serif" font-size="14" lengthAdjust="spacing" textLength="52" x="57.45" y="800.432">Channel</text><line style="stroke:#181818;stroke-width:0.5;" x1="8" x2="129" y1="811" y2="811"/><text fill="#000000" font-family="sans-serif" font-size="14" lengthAdjust="spacing" textLength="63" x="13" y="829.9659">uid: string</text><text fill="#000000" font-family="sans-serif" font-size="14" lengthAdjust="spacing" textLength="110" x="13" y="849.0339">properties: jsonb</text><text fill="#000000" font-family="sans-serif" font-size="14" lengthAdjust="spacing" textLength="111" x="13" y="868.1018">enabled: boolean</text><line style="stroke:#181818;stroke-width:0.5;" x1="8" x2="129" y1="876.2038" y2="876.2038"/></g><!--MD5=[c7e4a3a7f219bd375d4e17cb1ffb3909]
class ChannelStatistic--><g id="elem_ChannelStatistic"><rect codeLine="38" fill="#FFF1D9" filter="url(#f12w4b7x5rbw2c)" height="391.2225" id="ChannelStatistic" rx="5" ry="5" style="stroke:#181818;stroke-width:0.5;" width="260" x="236.5" y="636"/><rect fill="#FFD080" height="32" rx="5" ry="5" style="stroke:#FFD080;stroke-width:0.5;" width="260" x="236.5" y="636"/><rect fill="#FFD080" height="5" style="stroke:#FFD080;stroke-width:0.5;" width="260" x="236.5" y="663"/><rect codeLine="38" fill="none" height="391.2225" id="ChannelStatistic" rx="5" ry="5" style="stroke:#181818;stroke-width:0.5;" width="260" x="236.5" y="636"/><ellipse cx="309.25" cy="652" fill="#ADD1B2" rx="11" ry="11" style="stroke:#181818;stroke-width:1.0;"/><path d="M309.3594,647.2813 Q308.4375,647.2813 307.7031,647.5938 Q306.9844,647.9063 306.4844,648.5 Q305.9844,649.0781 305.7031,649.9531 Q305.4375,650.8281 305.4375,651.9219 Q305.4375,653.3594 305.875,654.4063 Q306.3281,655.4531 307.1719,656 Q308.0313,656.5469 309.3438,656.5469 Q310.125,656.5469 310.8125,656.4219 Q311.5156,656.2813 312.5156,655.9688 L312.5156,657.8438 Q311.6563,658.1719 310.8906,658.2969 Q310.1406,658.4219 309.125,658.4219 Q307.2031,658.4219 305.8906,657.625 Q304.5938,656.8125 303.9375,655.3438 Q303.2813,653.8594 303.2813,651.8906 Q303.2813,650.4688 303.6719,649.2969 Q304.0781,648.1094 304.8594,647.2344 Q305.6406,646.3594 306.7813,645.8906 Q307.9219,645.4063 309.3906,645.4063 Q310.3438,645.4063 311.2344,645.6094 Q312.1406,645.7969 313.0781,646.2656 L312.25,648.0469 Q311.4688,647.6719 310.8125,647.4844 Q310.1563,647.2813 309.3594,647.2813 Z " fill="#000000"/><text fill="#000000" font-family="sans-serif" font-size="14" lengthAdjust="spacing" textLength="106" x="329.75" y="657.432">ChannelStatistic</text><line style="stroke:#181818;stroke-width:0.5;" x1="237.5" x2="495.5" y1="668" y2="668"/><text fill="#000000" font-family="sans-serif" font-size="14" lengthAdjust="spacing" textLength="57" x="242.5" y="686.9659">server_id</text><text fill="#000000" font-family="sans-serif" font-size="14" lengthAdjust="spacing" textLength="67" x="242.5" y="706.0339">channel_id</text><text fill="#000000" font-family="sans-serif" font-size="14" lengthAdjust="spacing" textLength="109" x="242.5" y="725.1018">server_uid: string</text><text fill="#000000" font-family="sans-serif" font-size="14" lengthAdjust="spacing" textLength="119" x="242.5" y="744.1697">channel_uid: string</text><text fill="#000000" font-family="sans-serif" font-size="14" lengthAdjust="spacing" textLength="141" x="242.5" y="763.2376">meta_data_id: integer</text><text fill="#000000" font-family="sans-serif" font-size="14" lengthAdjust="spacing" textLength="81" x="242.5" y="782.3055">name: string</text><text fill="#000000" font-family="sans-serif" font-size="14" lengthAdjust="spacing" textLength="79" x="242.5" y="801.3734">state: string</text><text fill="#000000" font-family="sans-serif" font-size="14" lengthAdjust="spacing" textLength="121" x="242.5" y="820.4414">status_type: string</text><text fill="#000000" font-family="sans-serif" font-size="14" lengthAdjust="spacing" textLength="107" x="242.5" y="839.5093">received: integer</text><text fill="#000000" font-family="sans-serif" font-size="14" lengthAdjust="spacing" textLength="82" x="242.5" y="858.5772">sent: integer</text><text fill="#000000" font-family="sans-serif" font-size="14" lengthAdjust="spacing" textLength="85" x="242.5" y="877.6451">error: integer</text><text fill="#000000" font-family="sans-serif" font-size="14" lengthAdjust="spacing" textLength="99" x="242.5" y="896.713">filtered: integer</text><text fill="#000000" font-family="sans-serif" font-size="14" lengthAdjust="spacing" textLength="101" x="242.5" y="915.7809">queued: integer</text><text fill="#000000" font-family="sans-serif" font-size="14" lengthAdjust="spacing" textLength="105" x="242.5" y="934.8489">condition: string</text><text fill="#000000" font-family="sans-serif" font-size="14" lengthAdjust="spacing" textLength="223" x="242.5" y="953.9168">last_condition_change: timestamp</text><text fill="#000000" font-family="sans-serif" font-size="14" lengthAdjust="spacing" textLength="248" x="242.5" y="972.9847">last_message_received_at: timestamp</text><text fill="#000000" font-family="sans-serif" font-size="14" lengthAdjust="spacing" textLength="223" x="242.5" y="992.0526">last_message_sent_at: timestamp</text><text fill="#000000" font-family="sans-serif" font-size="14" lengthAdjust="spacing" textLength="226" x="242.5" y="1011.1205">last_message_error_at: timestamp</text><line style="stroke:#181818;stroke-width:0.5;" x1="237.5" x2="495.5" y1="1019.2225" y2="1019.2225"/></g><!--MD5=[13ebb944a94f76c7ef0a19d303697e17]
class ChannelCounter--><g id="elem_ChannelCounter"><rect codeLine="59" fill="#FFF1D9" filter="url(#f12w4b7x5rbw2c)" height="219.6113" id="ChannelCounter" rx="5" ry="5" style="stroke:#181818;stroke-width:0.5;" width="153" x="28" y="308.5"/><rect fill="#FFD080" height="32" rx="5" ry="5" style="stroke:#FFD080;stroke-width:0.5;" width="153" x="28" y="308.5"/><rect fill="#FFD080" height="5" style="stroke:#FFD080;stroke-width:0.5;" width="153" x="28" y="335.5"/><rect codeLine="59" fill="none" height="219.6113" id="ChannelCounter" rx="5" ry="5" style="stroke:#181818;stroke-width:0.5;" width="153" x="28" y="308.5"/><ellipse cx="50.2" cy="324.5" fill="#ADD1B2" rx="11" ry="11" style="stroke:#181818;stroke-width:1.0;"/><path d="M50.3094,319.7813 Q49.3875,319.7813 48.6531,320.0938 Q47.9344,320.4063 47.4344,321 Q46.9344,321.5781 46.6531,322.4531 Q46.3875,323.3281 46.3875,324.4219 Q46.3875,325.8594 46.825,326.9063 Q47.2781,327.9531 48.1219,328.5 Q48.9813,329.0469 50.2938,329.0469 Q51.075,329.0469 51.7625,328.9219 Q52.4656,328.7813 53.4656,328.4688 L53.4656,330.3438 Q52.6063,330.6719 51.8406,330.7969 Q51.0906,330.9219 50.075,330.9219 Q48.1531,330.9219 46.8406,330.125 Q45.5438,329.3125 44.8875,327.8438 Q44.2313,326.3594 44.2313,324.3906 Q44.2313,322.9688 44.6219,321.7969 Q45.0281,320.6094 45.8094,319.7344 Q46.5906,318.8594 47.7313,318.3906 Q48.8719,317.9063 50.3406,317.9063 Q51.2938,317.9063 52.1844,318.1094 Q53.0906,318.2969 54.0281,318.7656 L53.2,320.5469 Q52.4188,320.1719 51.7625,319.9844 Q51.1063,319.7813 50.3094,319.7813 Z " fill="#000000"/><text fill="#000000" font-family="sans-serif" font-size="14" lengthAdjust="spacing" textLength="105" x="65.8" y="329.932">ChannelCounter</text><line style="stroke:#181818;stroke-width:0.5;" x1="29" x2="180" y1="340.5" y2="340.5"/><text fill="#000000" font-family="sans-serif" font-size="14" lengthAdjust="spacing" textLength="67" x="34" y="359.4659">channel_id</text><text fill="#000000" font-family="sans-serif" font-size="14" lengthAdjust="spacing" textLength="57" x="34" y="378.5339">server_id</text><text fill="#000000" font-family="sans-serif" font-size="14" lengthAdjust="spacing" textLength="126" x="34" y="397.6018">channel_statistic_id</text><text fill="#000000" font-family="sans-serif" font-size="14" lengthAdjust="spacing" textLength="141" x="34" y="416.6697">meta_data_id: integer</text><text fill="#000000" font-family="sans-serif" font-size="14" lengthAdjust="spacing" textLength="107" x="34" y="435.7376">received: integer</text><text fill="#000000" font-family="sans-serif" font-size="14" lengthAdjust="spacing" textLength="82" x="34" y="454.8055">sent: integer</text><text fill="#000000" font-family="sans-serif" font-size="14" lengthAdjust="spacing" textLength="85" x="34" y="473.8734">error: integer</text><text fill="#000000" font-family="sans-serif" font-size="14" lengthAdjust="spacing" textLength="99" x="34" y="492.9414">filtered: integer</text><text fill="#000000" font-family="sans-serif" font-size="14" lengthAdjust="spacing" textLength="101" x="34" y="512.0093">queued: integer</text><line style="stroke:#181818;stroke-width:0.5;" x1="29" x2="180" y1="520.1113" y2="520.1113"/></g><!--MD5=[0df93ba7b86d6e3ff3f57d8b1170b96e]
class Alert--><g id="elem_Alert"><rect codeLine="71" fill="#FFF1D9" filter="url(#f12w4b7x5rbw2c)" height="143.3396" id="Alert" rx="5" ry="5" style="stroke:#181818;stroke-width:0.5;" width="190" x="39.5" y="1096.5"/><rect fill="#FFD080" height="32" rx="5" ry="5" style="stroke:#FFD080;stroke-width:0.5;" width="190" x="39.5" y="1096.5"/><rect fill="#FFD080" height="5" style="stroke:#FFD080;stroke-width:0.5;" width="190" x="39.5" y="1123.5"/><rect codeLine="71" fill="none" height="143.3396" id="Alert" rx="5" ry="5" style="stroke:#181818;stroke-width:0.5;" width="190" x="39.5" y="1096.5"/><ellipse cx="114.75" cy="1112.5" fill="#ADD1B2" rx="11" ry="11" style="stroke:#181818;stroke-width:1.0;"/><path d="M114.8594,1107.7813 Q113.9375,1107.7813 113.2031,1108.0938 Q112.4844,1108.4063 111.9844,1109 Q111.4844,1109.5781 111.2031,1110.4531 Q110.9375,1111.3281 110.9375,1112.4219 Q110.9375,1113.8594 111.375,1114.9063 Q111.8281,1115.9531 112.6719,1116.5 Q113.5313,1117.0469 114.8438,1117.0469 Q115.625,1117.0469 116.3125,1116.9219 Q117.0156,1116.7813 118.0156,1116.4688 L118.0156,1118.3438 Q117.1563,1118.6719 116.3906,1118.7969 Q115.6406,1118.9219 114.625,1118.9219 Q112.7031,1118.9219 111.3906,1118.125 Q110.0938,1117.3125 109.4375,1115.8438 Q108.7813,1114.3594 108.7813,1112.3906 Q108.7813,1110.9688 109.1719,1109.7969 Q109.5781,1108.6094 110.3594,1107.7344 Q111.1406,1106.8594 112.2813,1106.3906 Q113.4219,1105.9063 114.8906,1105.9063 Q115.8438,1105.9063 116.7344,1106.1094 Q117.6406,1106.2969 118.5781,1106.7656 L117.75,1108.5469 Q116.9688,1108.1719 116.3125,1107.9844 Q115.6563,1107.7813 114.8594,1107.7813 Z " fill="#000000"/><text fill="#000000" font-family="sans-serif" font-size="14" lengthAdjust="spacing" textLength="31" x="135.25" y="1117.932">Alert</text><line style="stroke:#181818;stroke-width:0.5;" x1="40.5" x2="228.5" y1="1128.5" y2="1128.5"/><text fill="#000000" font-family="sans-serif" font-size="14" lengthAdjust="spacing" textLength="67" x="45.5" y="1147.4659">channel_id</text><text fill="#000000" font-family="sans-serif" font-size="14" lengthAdjust="spacing" textLength="57" x="45.5" y="1166.5339">server_id</text><text fill="#000000" font-family="sans-serif" font-size="14" lengthAdjust="spacing" textLength="126" x="45.5" y="1185.6018">channel_statistic_id</text><text fill="#000000" font-family="sans-serif" font-size="14" lengthAdjust="spacing" textLength="178" x="45.5" y="1204.6697">type: string : alert, recovery</text><text fill="#000000" font-family="sans-serif" font-size="14" lengthAdjust="spacing" textLength="93" x="45.5" y="1223.7376">message: text</text><line style="stroke:#181818;stroke-width:0.5;" x1="40.5" x2="228.5" y1="1231.8396" y2="1231.8396"/></g><!--MD5=[5d3c9bb25b1b07c105e03cfa5bc0b7ee]
class Note--><g id="elem_Note"><rect codeLine="79" fill="#FFF1D9" filter="url(#f12w4b7x5rbw2c)" height="143.3396" id="Note" rx="5" ry="5" style="stroke:#181818;stroke-width:0.5;" width="153" x="473" y="1096.5"/><rect fill="#FFD080" height="32" rx="5" ry="5" style="stroke:#FFD080;stroke-width:0.5;" width="153" x="473" y="1096.5"/><rect fill="#FFD080" height="5" style="stroke:#FFD080;stroke-width:0.5;" width="153" x="473" y="1123.5"/><rect codeLine="79" fill="none" height="143.3396" id="Note" rx="5" ry="5" style="stroke:#181818;stroke-width:0.5;" width="153" x="473" y="1096.5"/><ellipse cx="528.25" cy="1112.5" fill="#ADD1B2" rx="11" ry="11" style="stroke:#181818;stroke-width:1.0;"/><path d="M528.3594,1107.7813 Q527.4375,1107.7813 526.7031,1108.0938 Q525.9844,1108.4063 525.4844,1109 Q524.9844,1109.5781 524.7031,1110.4531 Q524.4375,1111.3281 524.4375,1112.4219 Q524.4375,1113.8594 524.875,1114.9063 Q525.3281,1115.9531 526.1719,1116.5 Q527.0313,1117.0469 528.3438,1117.0469 Q529.125,1117.0469 529.8125,1116.9219 Q530.5156,1116.7813 531.5156,1116.4688 L531.5156,1118.3438 Q530.6563,1118.6719 529.8906,1118.7969 Q529.1406,1118.9219 528.125,1118.9219 Q526.2031,1118.9219 524.8906,1118.125 Q523.5938,1117.3125 522.9375,1115.8438 Q522.2813,1114.3594 522.2813,1112.3906 Q522.2813,1110.9688 522.6719,1109.7969 Q523.0781,1108.6094 523.8594,1107.7344 Q524.6406,1106.8594 525.7813,1106.3906 Q526.9219,1105.9063 528.3906,1105.9063 Q529.3438,1105.9063 530.2344,1106.1094 Q531.1406,1106.2969 532.0781,1106.7656 L531.25,1108.5469 Q530.4688,1108.1719 529.8125,1107.9844 Q529.1563,1107.7813 528.3594,1107.7813 Z " fill="#000000"/><text fill="#000000" font-family="sans-serif" font-size="14" lengthAdjust="spacing" textLength="34" x="548.75" y="1117.932">Note</text><line style="stroke:#181818;stroke-width:0.5;" x1="474" x2="625" y1="1128.5" y2="1128.5"/><text fill="#000000" font-family="sans-serif" font-size="14" lengthAdjust="spacing" textLength="67" x="479" y="1147.4659">channel_id</text><text fill="#000000" font-family="sans-serif" font-size="14" lengthAdjust="spacing" textLength="57" x="479" y="1166.5339">server_id</text><text fill="#000000" font-family="sans-serif" font-size="14" lengthAdjust="spacing" textLength="126" x="479" y="1185.6018">channel_statistic_id</text><text fill="#000000" font-family="sans-serif" font-size="14" lengthAdjust="spacing" textLength="45" x="479" y="1204.6697">user_id</text><text fill="#000000" font-family="sans-serif" font-size="14" lengthAdjust="spacing" textLength="141" x="479" y="1223.7376">type: string : ack, mail</text><line style="stroke:#181818;stroke-width:0.5;" x1="474" x2="625" y1="1231.8396" y2="1231.8396"/></g><!--MD5=[d19e87a2954ae03571d2212ad7d3f494]
class ServerConfiguration--><g id="elem_ServerConfiguration"><rect codeLine="87" fill="#FFF1D9" filter="url(#f12w4b7x5rbw2c)" height="105.2038" id="ServerConfiguration" rx="5" ry="5" style="stroke:#181818;stroke-width:0.5;" width="171" x="480" y="366"/><rect fill="#FFD080" height="32" rx="5" ry="5" style="stroke:#FFD080;stroke-width:0.5;" width="171" x="480" y="366"/><rect fill="#FFD080" height="5" style="stroke:#FFD080;stroke-width:0.5;" width="171" x="480" y="393"/><rect codeLine="87" fill="none" height="105.2038" id="ServerConfiguration" rx="5" ry="5" style="stroke:#181818;stroke-width:0.5;" width="171" x="480" y="366"/><ellipse cx="499.05" cy="382" fill="#ADD1B2" rx="11" ry="11" style="stroke:#181818;stroke-width:1.0;"/><path d="M499.1594,377.2813 Q498.2375,377.2813 497.5031,377.5938 Q496.7844,377.9063 496.2844,378.5 Q495.7844,379.0781 495.5031,379.9531 Q495.2375,380.8281 495.2375,381.9219 Q495.2375,383.3594 495.675,384.4063 Q496.1281,385.4531 496.9719,386 Q497.8313,386.5469 499.1438,386.5469 Q499.925,386.5469 500.6125,386.4219 Q501.3156,386.2813 502.3156,385.9688 L502.3156,387.8438 Q501.4563,388.1719 500.6906,388.2969 Q499.9406,388.4219 498.925,388.4219 Q497.0031,388.4219 495.6906,387.625 Q494.3938,386.8125 493.7375,385.3438 Q493.0813,383.8594 493.0813,381.8906 Q493.0813,380.4688 493.4719,379.2969 Q493.8781,378.1094 494.6594,377.2344 Q495.4406,376.3594 496.5813,375.8906 Q497.7219,375.4063 499.1906,375.4063 Q500.1438,375.4063 501.0344,375.6094 Q501.9406,375.7969 502.8781,376.2656 L502.05,378.0469 Q501.2688,377.6719 500.6125,377.4844 Q499.9563,377.2813 499.1594,377.2813 Z " fill="#000000"/><text fill="#000000" font-family="sans-serif" font-size="14" lengthAdjust="spacing" textLength="130" x="513.95" y="387.432">ServerConfiguration</text><line style="stroke:#181818;stroke-width:0.5;" x1="481" x2="650" y1="398" y2="398"/><text fill="#000000" font-family="sans-serif" font-size="14" lengthAdjust="spacing" textLength="57" x="500" y="416.9659">server_id</text><text fill="#000000" font-family="sans-serif" font-size="14" lengthAdjust="spacing" textLength="108" x="500" y="436.0339">comment: string</text><polygon fill="none" points="491,442.1358,495,446.1358,491,450.1358,487,446.1358" style="stroke:#B38D22;stroke-width:1.0;"/><text fill="#000000" font-family="sans-serif" font-size="14" lengthAdjust="spacing" textLength="145" x="500" y="455.1018">has_one_attached :file</text><line style="stroke:#181818;stroke-width:0.5;" x1="481" x2="650" y1="463.2038" y2="463.2038"/></g><!--MD5=[02a5da7fd2fcaf5f308c33a4710ee6c7]
class EscalationLevel--><g id="elem_EscalationLevel"><rect codeLine="93" fill="#FFF1D9" filter="url(#f12w4b7x5rbw2c)" height="162.4075" id="EscalationLevel" rx="5" ry="5" style="stroke:#181818;stroke-width:0.5;" width="173" x="265" y="1087"/><rect fill="#FFD080" height="32" rx="5" ry="5" style="stroke:#FFD080;stroke-width:0.5;" width="173" x="265" y="1087"/><rect fill="#FFD080" height="5" style="stroke:#FFD080;stroke-width:0.5;" width="173" x="265" y="1114"/><rect codeLine="93" fill="none" height="162.4075" id="EscalationLevel" rx="5" ry="5" style="stroke:#181818;stroke-width:0.5;" width="173" x="265" y="1087"/><ellipse cx="298" cy="1103" fill="#ADD1B2" rx="11" ry="11" style="stroke:#181818;stroke-width:1.0;"/><path d="M298.1094,1098.2813 Q297.1875,1098.2813 296.4531,1098.5938 Q295.7344,1098.9063 295.2344,1099.5 Q294.7344,1100.0781 294.4531,1100.9531 Q294.1875,1101.8281 294.1875,1102.9219 Q294.1875,1104.3594 294.625,1105.4063 Q295.0781,1106.4531 295.9219,1107 Q296.7813,1107.5469 298.0938,1107.5469 Q298.875,1107.5469 299.5625,1107.4219 Q300.2656,1107.2813 301.2656,1106.9688 L301.2656,1108.8438 Q300.4063,1109.1719 299.6406,1109.2969 Q298.8906,1109.4219 297.875,1109.4219 Q295.9531,1109.4219 294.6406,1108.625 Q293.3438,1107.8125 292.6875,1106.3438 Q292.0313,1104.8594 292.0313,1102.8906 Q292.0313,1101.4688 292.4219,1100.2969 Q292.8281,1099.1094 293.6094,1098.2344 Q294.3906,1097.3594 295.5313,1096.8906 Q296.6719,1096.4063 298.1406,1096.4063 Q299.0938,1096.4063 299.9844,1096.6094 Q300.8906,1096.7969 301.8281,1097.2656 L301,1099.0469 Q300.2188,1098.6719 299.5625,1098.4844 Q298.9063,1098.2813 298.1094,1098.2813 Z " fill="#000000"/><text fill="#000000" font-family="sans-serif" font-size="14" lengthAdjust="spacing" textLength="101" x="316" y="1108.432">EscalationLevel</text><line style="stroke:#181818;stroke-width:0.5;" x1="266" x2="437" y1="1119" y2="1119"/><text fill="#000000" font-family="sans-serif" font-size="14" lengthAdjust="spacing" textLength="161" x="271" y="1137.9659">escalatable: polymorphic</text><text fill="#000000" font-family="sans-serif" font-size="14" lengthAdjust="spacing" textLength="102" x="271" y="1157.0339">attribute: string</text><text fill="#000000" font-family="sans-serif" font-size="14" lengthAdjust="spacing" textLength="125" x="271" y="1176.1018">min_critical: integer</text><text fill="#000000" font-family="sans-serif" font-size="14" lengthAdjust="spacing" textLength="134" x="271" y="1195.1697">min_warning: integer</text><text fill="#000000" font-family="sans-serif" font-size="14" lengthAdjust="spacing" textLength="138" x="271" y="1214.2376">max_warning: integer</text><text fill="#000000" font-family="sans-serif" font-size="14" lengthAdjust="spacing" textLength="129" x="271" y="1233.3055">max_critical: integer</text><line style="stroke:#181818;stroke-width:0.5;" x1="266" x2="437" y1="1241.4075" y2="1241.4075"/></g><!--MD5=[067dfe80012d45ff94a0e59ff0bc5bf6]
link Location to Host--><g id="link_Location_Host"><path codeLine="102" d="M254.5,74.02 C254.5,92.39 254.5,115.29 254.5,133.71 " fill="none" id="Location-Host" style="stroke:#181818;stroke-width:1.0;"/><text fill="#000000" font-family="sans-serif" font-size="13" lengthAdjust="spacing" textLength="7" x="246.8328" y="95.9879">1</text><text fill="#000000" font-family="sans-serif" font-size="13" lengthAdjust="spacing" textLength="7" x="246.7781" y="121.9505">*</text></g><!--MD5=[98bb40404081c9409142fcd2a16e7a2d]
link Host to Server--><g id="link_Host_Server"><path codeLine="103" d="M264.44,201.05 C269.4,217.33 275.82,238.35 282.7,260.88 " fill="none" id="Host-Server" style="stroke:#181818;stroke-width:1.0;"/><text fill="#000000" font-family="sans-serif" font-size="13" lengthAdjust="spacing" textLength="7" x="258.6676" y="223.0236">1</text><text fill="#000000" font-family="sans-serif" font-size="13" lengthAdjust="spacing" textLength="7" x="273.0548" y="249.2309">*</text></g><!--MD5=[2ae6832cfa9b6872f98777380031d694]
link SoftwareConnection to Server--><g id="link_SoftwareConnection_Server"><path codeLine="104" d="M395.7,201.05 C390.79,217.33 384.46,238.35 377.68,260.88 " fill="none" id="SoftwareConnection-Server" style="stroke:#181818;stroke-width:1.0;"/><text fill="#000000" font-family="sans-serif" font-size="13" lengthAdjust="spacing" textLength="7" x="386.1647" y="223.0236">*</text><text fill="#000000" font-family="sans-serif" font-size="13" lengthAdjust="spacing" textLength="7" x="372.9323" y="249.2309">1</text></g><!--MD5=[af90eddff4a748015562140671816059]
link Server to Channel--><g id="link_Server_Channel"><path codeLine="105" d="M215.95,557.5 C190.62,589.22 168.15,618.69 157.5,636 C129.18,682.02 104.3,738.55 88.1,778.79 " fill="none" id="Server-Channel" style="stroke:#181818;stroke-width:1.0;"/><text fill="#000000" font-family="sans-serif" font-size="13" lengthAdjust="spacing" textLength="7" x="201.0185" y="563.1904">1</text><text fill="#000000" font-family="sans-serif" font-size="13" lengthAdjust="spacing" textLength="7" x="83.3641" y="767.1147">*</text></g><!--MD5=[830d6e454d5b2f37b38112460f363d60]
link Server to ServerConfiguration--><g id="link_Server_ServerConfiguration"><path codeLine="106" d="M445.25,418.5 C456.68,418.5 468.11,418.5 479.54,418.5 " fill="none" id="Server-ServerConfiguration" style="stroke:#181818;stroke-width:1.0;"/><text fill="#000000" font-family="sans-serif" font-size="13" lengthAdjust="spacing" textLength="7" x="452.8254" y="414.8767">1</text><text fill="#000000" font-family="sans-serif" font-size="13" lengthAdjust="spacing" textLength="7" x="465.1316" y="414.7139">*</text></g><!--MD5=[faf6992dae569d3f9d8c0508873b900b]
link Server to ChannelStatistic--><g id="link_Server_ChannelStatistic"><path codeLine="107" d="M344.21,576.05 C345.92,595.56 347.69,615.7 349.44,635.7 " fill="none" id="Server-ChannelStatistic" style="stroke:#181818;stroke-width:1.0;"/><text fill="#000000" font-family="sans-serif" font-size="13" lengthAdjust="spacing" textLength="7" x="337.7045" y="598.0083">1</text><text fill="#000000" font-family="sans-serif" font-size="13" lengthAdjust="spacing" textLength="7" x="341.5726" y="623.9883">*</text></g><!--MD5=[02fb209db51a37146f55d7f3b5bc6356]
link Channel to ChannelStatistic--><g id="link_Channel_ChannelStatistic"><path codeLine="108" d="M130.2,831.5 C165.58,831.5 200.96,831.5 236.35,831.5 " fill="none" id="Channel-ChannelStatistic" style="stroke:#181818;stroke-width:1.0;"/><text fill="#000000" font-family="sans-serif" font-size="13" lengthAdjust="spacing" textLength="7" x="138.1463" y="827.3917">1</text><text fill="#000000" font-family="sans-serif" font-size="13" lengthAdjust="spacing" textLength="7" x="221.6234" y="827.9196">*</text></g><!--MD5=[fbc738c16708044cbeb4f448191a1908]
link ChannelCounter to Server--><g id="link_ChannelCounter_Server"><path codeLine="109" d="M181.3,418.5 C192.86,418.5 204.42,418.5 215.98,418.5 " fill="none" id="ChannelCounter-Server" style="stroke:#181818;stroke-width:1.0;"/><text fill="#000000" font-family="sans-serif" font-size="13" lengthAdjust="spacing" textLength="7" x="188.9536" y="414.639">*</text><text fill="#000000" font-family="sans-serif" font-size="13" lengthAdjust="spacing" textLength="7" x="201.0505" y="414.8513">1</text></g><!--MD5=[b5736cd7f93e7ae9006cc69f0c23953f]
link ChannelCounter to Channel--><g id="link_ChannelCounter_Channel"><path codeLine="110" d="M94.95,528.56 C87.85,609.54 78.5,716.35 73.03,778.82 " fill="none" id="ChannelCounter-Channel" style="stroke:#181818;stroke-width:1.0;"/><text fill="#000000" font-family="sans-serif" font-size="13" lengthAdjust="spacing" textLength="7" x="87.114" y="550.0873">*</text><text fill="#000000" font-family="sans-serif" font-size="13" lengthAdjust="spacing" textLength="7" x="66.1748" y="767.1489">1</text></g><!--MD5=[bbb9afc21c5fea95aabcd00d79c6ecf1]
link ChannelCounter to ChannelStatistic--><g id="link_ChannelCounter_ChannelStatistic"><path codeLine="111" d="M169.39,528.89 C179.04,544.76 188.95,560.85 198.5,576 C210.78,595.49 223.73,615.7 236.78,635.83 " fill="none" id="ChannelCounter-ChannelStatistic" style="stroke:#181818;stroke-width:1.0;"/><text fill="#000000" font-family="sans-serif" font-size="13" lengthAdjust="spacing" textLength="7" x="166.131" y="550.0652">*</text><text fill="#000000" font-family="sans-serif" font-size="13" lengthAdjust="spacing" textLength="7" x="224.1598" y="624.1238">1</text></g><!--MD5=[987492a66c42a09406bf1d72e829ce6c]
link Server to Alert--><g id="link_Server_Alert"><path codeLine="112" d="M243.04,576.06 C234.14,595.85 226,616.13 219.5,636 C191.92,720.29 158.46,971.96 143.04,1096.12 " fill="none" id="Server-Alert" style="stroke:#181818;stroke-width:1.0;"/><text fill="#000000" font-family="sans-serif" font-size="13" lengthAdjust="spacing" textLength="7" x="231.6341" y="598.0188">1</text><text fill="#000000" font-family="sans-serif" font-size="13" lengthAdjust="spacing" textLength="7" x="136.5597" y="1084.7467">*</text></g><!--MD5=[27ed311f81354a581ed11163d2220eff]
link Channel to Alert--><g id="link_Channel_Alert"><path codeLine="113" d="M78.67,884.03 C89.9,940.94 108.04,1032.89 120.58,1096.45 " fill="none" id="Channel-Alert" style="stroke:#181818;stroke-width:1.0;"/><text fill="#000000" font-family="sans-serif" font-size="13" lengthAdjust="spacing" textLength="20" x="58.6928" y="906.1617">0..1</text><text fill="#000000" font-family="sans-serif" font-size="13" lengthAdjust="spacing" textLength="7" x="111.6747" y="1084.6116">*</text></g><!--MD5=[4a412d2b4f6ae338b5d74d2103219064]
link ChannelStatistic to Alert--><g id="link_ChannelStatistic_Alert"><path codeLine="114" d="M236.26,1020.28 C217.46,1047.39 199.17,1073.76 183.4,1096.5 " fill="none" id="ChannelStatistic-Alert" style="stroke:#181818;stroke-width:1.0;"/><text fill="#000000" font-family="sans-serif" font-size="13" lengthAdjust="spacing" textLength="20" x="208.5906" y="1027.0493">0..1</text><text fill="#000000" font-family="sans-serif" font-size="13" lengthAdjust="spacing" textLength="7" x="181.3656" y="1084.6671">*</text></g><!--MD5=[ceed5b908f4994f3d88bd37b0b85a256]
link Server to Note--><g id="link_Server_Note"><path codeLine="115" d="M445.22,555.74 C451.06,562.6 456.84,569.38 462.5,576 C485.43,602.82 501.09,603.36 514.5,636 C577.98,790.45 569.27,991.51 558.66,1096.37 " fill="none" id="Server-Note" style="stroke:#181818;stroke-width:1.0;"/><text fill="#000000" font-family="sans-serif" font-size="13" lengthAdjust="spacing" textLength="7" x="453.1629" y="561.3121">1</text><text fill="#000000" font-family="sans-serif" font-size="13" lengthAdjust="spacing" textLength="7" x="552.2791" y="1084.5228">*</text></g><!--MD5=[b70cc4d2e094749d2eb05ba79b8eb3be]
link Channel to Note--><g id="link_Channel_Note"><path codeLine="116" d="M95.59,884.22 C121.53,928.69 164.78,991.17 219.5,1027 C310.04,1086.29 359.36,1037.31 455.5,1087 C461.4,1090.05 467.25,1093.53 472.98,1097.3 " fill="none" id="Channel-Note" style="stroke:#181818;stroke-width:1.0;"/><text fill="#000000" font-family="sans-serif" font-size="13" lengthAdjust="spacing" textLength="20" x="100.3422" y="905.993">0..1</text><text fill="#000000" font-family="sans-serif" font-size="13" lengthAdjust="spacing" textLength="7" x="458.103" y="1086.4188">*</text></g><!--MD5=[631f6531af220d90bdc65bbca1a614ce]
link ChannelStatistic to Note--><g id="link_ChannelStatistic_Note"><path codeLine="117" d="M472.95,1027.08 C486.4,1051.66 499.4,1075.42 510.76,1096.18 " fill="none" id="ChannelStatistic-Note" style="stroke:#181818;stroke-width:1.0;"/><text fill="#000000" font-family="sans-serif" font-size="13" lengthAdjust="spacing" textLength="20" x="456.7176" y="1048.9583">0..1</text><text fill="#000000" font-family="sans-serif" font-size="13" lengthAdjust="spacing" textLength="7" x="499.404" y="1084.8129">*</text></g><!--MD5=[2cbc2b39c074c8b0cb5be35b27e28fc9]
link ChannelStatistic to EscalationLevel--><g id="link_ChannelStatistic_EscalationLevel"><path codeLine="118" d="M357.77,1027.08 C356.83,1048.06 355.92,1068.46 355.09,1086.89 " fill="none" id="ChannelStatistic-EscalationLevel" style="stroke:#181818;stroke-width:1.0;"/><text fill="#000000" font-family="sans-serif" font-size="13" lengthAdjust="spacing" textLength="20" x="337.0384" y="1048.9583">0..1</text><text fill="#000000" font-family="sans-serif" font-size="13" lengthAdjust="spacing" textLength="7" x="348.0986" y="1075.2603">*</text></g><!--MD5=[fd2915afafc55b7d8024c1bcf3ba8192]
@startuml
top to bottom direction

!theme mirco from .

class Location {
  ...
}
class Host {
  ...
}
class SoftwareConnection {
  ...
}

class Server  {
  host_id
  name: string
  uid: string
  description: text
  api_url: string
  api_user: string
  api_password_ciphertext: text
  api_user_has_full_access: boolean
  api_verify_ssl: boolean
  properties: jsonb
  last_channel_update: timestamp
  last_check: timestamp
  last_check_ok: timestamp
  manual_update: boolean
}

class Channel {
  uid: string
  properties: jsonb
  enabled: boolean
}

class ChannelStatistic {
  server_id
  channel_id
  server_uid: string
  channel_uid: string
  meta_data_id: integer
  name: string
  state: string
  status_type: string
  received: integer
  sent: integer
  error: integer
  filtered: integer
  queued: integer
  condition: string
  last_condition_change: timestamp
  last_message_received_at: timestamp
  last_message_sent_at: timestamp
  last_message_error_at: timestamp
}

class ChannelCounter {
  channel_id
  server_id
  channel_statistic_id
  meta_data_id: integer
  received: integer
  sent: integer
  error: integer
  filtered: integer
  queued: integer
}

class Alert {
  channel_id
  server_id
  channel_statistic_id
  type: string : alert, recovery
  message: text
}

class Note {
  channel_id
  server_id
  channel_statistic_id
  user_id
  type: string : ack, mail
}

class ServerConfiguration {
  server_id
  comment: string
  # has_one_attached :file
}

class EscalationLevel {
  escalatable: polymorphic
  attribute: string
  min_critical: integer
  min_warning: integer
  max_warning: integer
  max_critical: integer
}

Location "1" - - "*" Host
Host "1" - - "*" Server
SoftwareConnection "*" - - "1" "Server"
Server "1" - - "*" Channel
Server "1" - "*" ServerConfiguration
Server "1" - "*" ChannelStatistic
Channel "1" - "*" ChannelStatistic
ChannelCounter "*" - "1" Server
ChannelCounter "*" - - "1" Channel
ChannelCounter "*" - - "1" ChannelStatistic
Server "1" - - "*" Alert
Channel "0..1" - - "*" Alert
ChannelStatistic "0..1" - - "*" Alert
Server "1" - - "*" Note
Channel "0..1" - - "*" Note
ChannelStatistic "0..1" - - "*" Note
ChannelStatistic "0..1" - - "*" EscalationLevel

@enduml

@startuml
top to bottom direction


skinparam defaultTextAlignment center
skinparam roundCorner 10
skinparam shadowing 4.0
<style>
  circle {
    BackGroundColor #aaaaaaa
  }
  rectangle {
    BackGroundColor Gold
  }
  file {
    BackGroundColor Gold
  }
  queue {
    BackgroundColor #C7FCF6
    padding 10
  }
  document {
    BackGroundColor white
  }
</style>


skinparam class {
  BackgroundColor #FFF1D9
	HeaderBackgroundColor  #FFD080
}

class Location {
  ...
}
class Host {
  ...
}
class SoftwareConnection {
  ...
}

class Server  {
  host_id
  name: string
  uid: string
  description: text
  api_url: string
  api_user: string
  api_password_ciphertext: text
  api_user_has_full_access: boolean
  api_verify_ssl: boolean
  properties: jsonb
  last_channel_update: timestamp
  last_check: timestamp
  last_check_ok: timestamp
  manual_update: boolean
}

class Channel {
  uid: string
  properties: jsonb
  enabled: boolean
}

class ChannelStatistic {
  server_id
  channel_id
  server_uid: string
  channel_uid: string
  meta_data_id: integer
  name: string
  state: string
  status_type: string
  received: integer
  sent: integer
  error: integer
  filtered: integer
  queued: integer
  condition: string
  last_condition_change: timestamp
  last_message_received_at: timestamp
  last_message_sent_at: timestamp
  last_message_error_at: timestamp
}

class ChannelCounter {
  channel_id
  server_id
  channel_statistic_id
  meta_data_id: integer
  received: integer
  sent: integer
  error: integer
  filtered: integer
  queued: integer
}

class Alert {
  channel_id
  server_id
  channel_statistic_id
  type: string : alert, recovery
  message: text
}

class Note {
  channel_id
  server_id
  channel_statistic_id
  user_id
  type: string : ack, mail
}

class ServerConfiguration {
  server_id
  comment: string
  # has_one_attached :file
}

class EscalationLevel {
  escalatable: polymorphic
  attribute: string
  min_critical: integer
  min_warning: integer
  max_warning: integer
  max_critical: integer
}

Location "1" - - "*" Host
Host "1" - - "*" Server
SoftwareConnection "*" - - "1" "Server"
Server "1" - - "*" Channel
Server "1" - "*" ServerConfiguration
Server "1" - "*" ChannelStatistic
Channel "1" - "*" ChannelStatistic
ChannelCounter "*" - "1" Server
ChannelCounter "*" - - "1" Channel
ChannelCounter "*" - - "1" ChannelStatistic
Server "1" - - "*" Alert
Channel "0..1" - - "*" Alert
ChannelStatistic "0..1" - - "*" Alert
Server "1" - - "*" Note
Channel "0..1" - - "*" Note
ChannelStatistic "0..1" - - "*" Note
ChannelStatistic "0..1" - - "*" EscalationLevel

@enduml

PlantUML version 1.2022.5(Sat Apr 30 12:55:52 CEST 2022)
(GPL source distribution)
Java Runtime: OpenJDK Runtime Environment
JVM: OpenJDK 64-Bit Server VM
Default Encoding: UTF-8
Language: de
Country: DE
--></g></svg>