<?xml version="1.0" encoding="us-ascii" standalone="no"?><svg xmlns="http://www.w3.org/2000/svg" xmlns:xlink="http://www.w3.org/1999/xlink" contentStyleType="text/css" height="315px" preserveAspectRatio="none" style="width:862px;height:315px;background:#FFFFFF;" version="1.1" viewBox="0 0 862 315" width="862px" zoomAndPan="magnify"><defs><filter height="300%" id="f1a0bwqf45t6z3" width="300%" x="-1" y="-1"><feGaussianBlur result="blurOut" stdDeviation="2.0"/><feColorMatrix in="blurOut" result="blurOut2" type="matrix" values="0 0 0 0 0 0 0 0 0 0 0 0 0 0 0 0 0 0 .4 0"/><feOffset dx="4.0" dy="4.0" in="blurOut2" result="blurOut3"/><feBlend in="SourceGraphic" in2="blurOut3" mode="normal"/></filter></defs><g><!--entity network--><g id="elem_network"><rect fill="#90EE90" filter="url(#f1a0bwqf45t6z3)" height="58.1358" rx="5" ry="5" style="stroke:#181818;stroke-width:0.5;" width="111" x="231" y="7"/><text fill="#000000" font-family="sans-serif" font-size="14" lengthAdjust="spacing" textLength="56" x="258.5" y="31.9659">Network</text><text fill="#000000" font-family="sans-serif" font-size="14" font-style="italic" lengthAdjust="spacing" textLength="91" x="241" y="51.0339">mirco.network</text></g><!--entity mirco--><g id="elem_mirco"><rect fill="#FFD700" filter="url(#f1a0bwqf45t6z3)" height="58.1358" rx="5" ry="5" style="stroke:#181818;stroke-width:0.5;" width="120" x="418.5" y="125.14"/><text fill="#000000" font-family="sans-serif" font-size="14" font-weight="bold" lengthAdjust="spacing" textLength="40.1875" x="458.4063" y="150.1059">mirco</text><text fill="#000000" font-family="sans-serif" font-size="14" font-style="italic" lengthAdjust="spacing" textLength="100" x="428.5" y="169.1739">mirco.container</text></g><!--entity worker--><g id="elem_worker"><rect fill="#FFD700" filter="url(#f1a0bwqf45t6z3)" height="58.1358" rx="5" ry="5" style="stroke:#181818;stroke-width:0.5;" width="168" x="578.5" y="125.14"/><text fill="#000000" font-family="sans-serif" font-size="14" font-weight="bold" lengthAdjust="spacing" textLength="94.25" x="615.375" y="150.1059">mirco-worker</text><text fill="#000000" font-family="sans-serif" font-size="14" font-style="italic" lengthAdjust="spacing" textLength="148" x="588.5" y="169.1739">mirco-worker.container</text></g><!--entity postgres--><g id="elem_postgres"><rect fill="#FFD700" filter="url(#f1a0bwqf45t6z3)" height="58.1358" rx="5" ry="5" style="stroke:#181818;stroke-width:0.5;" width="178" x="197.5" y="125.14"/><text fill="#000000" font-family="sans-serif" font-size="14" font-weight="bold" lengthAdjust="spacing" textLength="108.125" x="232.4375" y="150.1059">mirco-postgres</text><text fill="#000000" font-family="sans-serif" font-size="14" font-style="italic" lengthAdjust="spacing" textLength="158" x="207.5" y="169.1739">mirco-postgres.container</text></g><!--entity redis--><g id="elem_redis"><rect fill="#FFD700" filter="url(#f1a0bwqf45t6z3)" height="58.1358" rx="5" ry="5" style="stroke:#181818;stroke-width:0.5;" width="155" x="7" y="125.14"/><text fill="#000000" font-family="sans-serif" font-size="14" font-weight="bold" lengthAdjust="spacing" textLength="81.8125" x="43.5938" y="150.1059">mirco-redis</text><text fill="#000000" font-family="sans-serif" font-size="14" font-style="italic" lengthAdjust="spacing" textLength="135" x="17" y="169.1739">mirco-redis.container</text></g><!--entity v_postgres--><g id="elem_v_postgres"><rect fill="#F1F1F1" filter="url(#f1a0bwqf45t6z3)" height="58.1358" rx="35" ry="35" style="stroke:#181818;stroke-width:0.5;" width="172" x="196.5" y="243.27"/><text fill="#000000" font-family="sans-serif" font-size="14" font-weight="bold" lengthAdjust="spacing" textLength="108.125" x="228.4375" y="268.2359">mirco-postgres</text><text fill="#000000" font-family="sans-serif" font-size="14" font-style="italic" lengthAdjust="spacing" textLength="144" x="206.5" y="287.3039">mirco-postgres.volume</text><text fill="#000000" font-family="sans-serif" font-size="14" lengthAdjust="spacing" textLength="8" x="350.5" y="287.3039">&#160;&#160;</text></g><!--entity v_redis--><g id="elem_v_redis"><rect fill="#F1F1F1" filter="url(#f1a0bwqf45t6z3)" height="58.1358" rx="35" ry="35" style="stroke:#181818;stroke-width:0.5;" width="149" x="10" y="243.27"/><text fill="#000000" font-family="sans-serif" font-size="14" font-weight="bold" lengthAdjust="spacing" textLength="81.8125" x="43.5938" y="268.2359">mirco-redis</text><text fill="#000000" font-family="sans-serif" font-size="14" font-style="italic" lengthAdjust="spacing" textLength="121" x="20" y="287.3039">mirco-redis.volume</text><text fill="#000000" font-family="sans-serif" font-size="14" lengthAdjust="spacing" textLength="8" x="141" y="287.3039">&#160;&#160;</text></g><!--entity v_storage--><g id="elem_v_storage"><rect fill="#F1F1F1" filter="url(#f1a0bwqf45t6z3)" height="58.1358" rx="35" ry="35" style="stroke:#181818;stroke-width:0.5;" width="166" x="582.5" y="243.27"/><text fill="#000000" font-family="sans-serif" font-size="14" font-weight="bold" lengthAdjust="spacing" textLength="99.6875" x="615.6563" y="268.2359">mirco-storage</text><text fill="#000000" font-family="sans-serif" font-size="14" font-style="italic" lengthAdjust="spacing" textLength="138" x="592.5" y="287.3039">mirco-storage.volume</text><text fill="#000000" font-family="sans-serif" font-size="14" lengthAdjust="spacing" textLength="8" x="730.5" y="287.3039">&#160;&#160;</text></g><!--entity v_tmp--><g id="elem_v_tmp"><rect fill="#F1F1F1" filter="url(#f1a0bwqf45t6z3)" height="58.1358" rx="35" ry="35" style="stroke:#181818;stroke-width:0.5;" width="143" x="404" y="243.27"/><text fill="#000000" font-family="sans-serif" font-size="14" font-weight="bold" lengthAdjust="spacing" textLength="73.9375" x="438.5313" y="268.2359">mirco-tmp</text><text fill="#000000" font-family="sans-serif" font-size="14" font-style="italic" lengthAdjust="spacing" textLength="115" x="414" y="287.3039">mirco-tmp.volume</text><text fill="#000000" font-family="sans-serif" font-size="14" lengthAdjust="spacing" textLength="8" x="529" y="287.3039">&#160;&#160;</text></g><!--entity mirco_yml--><g id="elem_mirco_yml"><rect fill="#F1F1F1" filter="url(#f1a0bwqf45t6z3)" height="39.0679" rx="35" ry="35" style="stroke:#181818;stroke-width:0.5;" width="138" x="501.5" y="16.54"/><text fill="#000000" font-family="sans-serif" font-size="14" lengthAdjust="spacing" textLength="118" x="511.5" y="41.5059">./mirco/mirco.yml</text></g><!--entity env--><g id="elem_env"><path d="M674.5,21.54 L674.5,50.6079 A5,5 0 0 0 679.5,55.6079 L843.5,55.6079 A5,5 0 0 0 848.5,50.6079 L848.5,26.54 L838.5,16.54 L679.5,16.54 A5,5 0 0 0 674.5,21.54 " fill="#ADD8E6" filter="url(#f1a0bwqf45t6z3)" style="stroke:#181818;stroke-width:0.5;"/><path d="M838.5,16.54 L838.5,21.54 A5,5 0 0 0 843.5,26.54 L848.5,26.54 " fill="#ADD8E6" style="stroke:#181818;stroke-width:0.5;"/><text fill="#000000" font-family="sans-serif" font-size="14" lengthAdjust="spacing" textLength="154" x="684.5" y="41.5059">./mirco/env.production</text></g><!--reverse link network to mirco--><g id="link_network_mirco"><path codeLine="57" d="M337.7479,68.0683 C367.4979,86.0683 401.56,106.67 431.35,124.69 " fill="none" id="network-backto-mirco" style="stroke:#181818;stroke-width:1.0;"/><rect fill="#FFFFFF" height="10" style="stroke:#181818;stroke-width:1.5;" width="10" x="328.47" y="60.48"/></g><!--reverse link network to postgres--><g id="link_network_postgres"><path codeLine="58" d="M286.5,70.48 C286.5,88.48 286.5,106.67 286.5,124.69 " fill="none" id="network-backto-postgres" style="stroke:#181818;stroke-width:1.0;"/><rect fill="#FFFFFF" height="10" style="stroke:#181818;stroke-width:1.5;" width="10" x="281.5" y="60.48"/></g><!--reverse link network to redis--><g id="link_network_redis"><path codeLine="59" d="M232.4953,68.122 C201.1853,86.122 165.25,106.78 133.98,124.76 " fill="none" id="network-backto-redis" style="stroke:#181818;stroke-width:1.0;"/><rect fill="#FFFFFF" height="10" style="stroke:#181818;stroke-width:1.5;" width="10" x="231.83" y="60.63"/></g><!--reverse link mirco_yml to mirco--><g id="link_mirco_yml_mirco"><path codeLine="62" d="M552.4061,59.9099 C537.6461,78.5499 518,103.34 501.05,124.74 " fill="none" id="mirco_yml-backto-mirco" style="stroke:#181818;stroke-width:1.0;"/><rect fill="#FFFFFF" height="10" style="stroke:#181818;stroke-width:1.5;" width="10" x="550.51" y="50.99"/></g><!--link mirco to v_storage--><g id="link_mirco_v_storage"><path codeLine="63" d="M524.25,183.62 C553.22,201.61 586.322,222.1728 615.332,240.1828 " fill="none" id="mirco-to-v_storage" style="stroke:#181818;stroke-width:1.0;"/><rect fill="#FFFFFF" height="10" style="stroke:#181818;stroke-width:1.5;" width="10" x="614.58" y="237.82"/></g><!--link mirco to v_tmp--><g id="link_mirco_v_tmp"><path codeLine="64" d="M477.77,183.62 C477.3,201.61 476.8277,219.8116 476.3677,237.8216 " fill="none" id="mirco-to-v_tmp" style="stroke:#181818;stroke-width:1.0;"/><rect fill="#FFFFFF" height="10" style="stroke:#181818;stroke-width:1.5;" width="10" x="471.24" y="237.82"/></g><!--reverse link mirco_yml to worker--><g id="link_mirco_yml_worker"><path codeLine="66" d="M588.5939,59.9099 C603.3539,78.5499 623,103.34 639.95,124.74 " fill="none" id="mirco_yml-backto-worker" style="stroke:#181818;stroke-width:1.0;"/><rect fill="#FFFFFF" height="10" style="stroke:#181818;stroke-width:1.5;" width="10" x="580.49" y="50.99"/></g><!--link worker to v_storage--><g id="link_worker_v_storage"><path codeLine="67" d="M663.23,183.62 C663.7,201.61 664.1723,219.8116 664.6323,237.8216 " fill="none" id="worker-to-v_storage" style="stroke:#181818;stroke-width:1.0;"/><rect fill="#FFFFFF" height="10" style="stroke:#181818;stroke-width:1.5;" width="10" x="659.76" y="237.82"/></g><!--link postgres to v_postgres--><g id="link_postgres_v_postgres"><path codeLine="69" d="M285.52,183.62 C284.9,201.61 284.272,219.813 283.652,237.823 " fill="none" id="postgres-to-v_postgres" style="stroke:#181818;stroke-width:1.0;"/><rect fill="#FFFFFF" height="10" style="stroke:#181818;stroke-width:1.5;" width="10" x="278.48" y="237.82"/></g><!--link redis to v_redis--><g id="link_redis_v_redis"><path codeLine="70" d="M84.5,183.62 C84.5,201.61 84.5,219.81 84.5,237.82 " fill="none" id="redis-to-v_redis" style="stroke:#181818;stroke-width:1.0;"/><rect fill="#FFFFFF" height="10" style="stroke:#181818;stroke-width:1.5;" width="10" x="79.5" y="237.82"/></g><!--SRC=[dPDhZeCW483_SuhPzBTw0UCHzWBDfl4njMG53ABDtdw1mGSqDTbDZC6FcOy1HgD6C0eQPOmIq76DhU5AiW_pG84Wk6uLtBMTo_FYy33c8clP3mWIpLFfRxWCl7-ONYDAk083-AG9EofvvLLvY2qBNh6leuHMkhhOXcBBegcEgQsIfkOIzMkoKwAEiZDYYIJGCzUe9hU7ARQjDFMj_CoeiUE9pgFKvU6hQ39Arpt2SljdQOiQPe5E1n0B_rRPUyywYam1fgw0Jsn6ZB79WjHYqLk3ZxZzYC5Ryi9_qpktr8NUkRqNb4lesMQOCGgsK_ceLJVJts0pjYRFCbeW8kjPHz2V6cDihsTFfdRFiij-UX6p-qiJgNLPwFKubMsjGNohXswO8DNp2m00]--></g></svg>