<?xml version="1.0" encoding="us-ascii" standalone="no"?><svg xmlns="http://www.w3.org/2000/svg" xmlns:xlink="http://www.w3.org/1999/xlink" contentStyleType="text/css" height="485px" preserveAspectRatio="none" style="width:274px;height:485px;background:#FFFFFF;" version="1.1" viewBox="0 0 274 485" width="274px" zoomAndPan="magnify"><defs><filter height="300%" id="f18d3st3fiyhu9" width="300%" x="-1" y="-1"><feGaussianBlur result="blurOut" stdDeviation="2.0"/><feColorMatrix in="blurOut" result="blurOut2" type="matrix" values="0 0 0 0 0 0 0 0 0 0 0 0 0 0 0 0 0 0 .4 0"/><feOffset dx="4.0" dy="4.0" in="blurOut2" result="blurOut3"/><feBlend in="SourceGraphic" in2="blurOut3" mode="normal"/></filter></defs><g><ellipse cx="104" cy="20" fill="#FFFFFF" filter="url(#f18d3st3fiyhu9)" rx="10" ry="10" style="stroke:#222222;stroke-width:1.0;"/><rect fill="#FFFFE0" filter="url(#f18d3st3fiyhu9)" height="36.3441" rx="5" ry="5" style="stroke:#181818;stroke-width:0.5;" width="156" x="26" y="50"/><text fill="#000000" font-family="sans-serif" font-size="12" lengthAdjust="spacing" textLength="136" x="36" y="72.8281">update channel statistic</text><polygon fill="#FFD700" filter="url(#f18d3st3fiyhu9)" points="72,106.3441,136,106.3441,148,118.3441,136,130.3441,72,130.3441,60,118.3441,72,106.3441" style="stroke:#181818;stroke-width:0.5;"/><text fill="#000000" font-family="sans-serif" font-size="11" lengthAdjust="spacing" textLength="64" x="72" y="122.6121">attrib.valid?</text><text fill="#000000" font-family="sans-serif" font-size="11" lengthAdjust="spacing" textLength="14" x="148" y="115.1211">no</text><ellipse cx="184" cy="118.3441" fill="#FFFFFF" filter="url(#f18d3st3fiyhu9)" rx="11" ry="11" style="stroke:#222222;stroke-width:1.0;"/><ellipse cx="184" cy="118.3441" fill="#222222" rx="6" ry="6" style="stroke:#909090;stroke-width:1.0;"/><polygon fill="#FFD700" filter="url(#f18d3st3fiyhu9)" points="78.5,150.3441,129.5,150.3441,141.5,162.3441,129.5,174.3441,78.5,174.3441,66.5,162.3441,78.5,150.3441" style="stroke:#181818;stroke-width:0.5;"/><text fill="#000000" font-family="sans-serif" font-size="11" lengthAdjust="spacing" textLength="51" x="78.5" y="166.6121">value.nil?</text><text fill="#000000" font-family="sans-serif" font-size="11" lengthAdjust="spacing" textLength="19" x="141.5" y="159.1211">yes</text><ellipse cx="182.5" cy="162.3441" fill="#FFFFFF" filter="url(#f18d3st3fiyhu9)" rx="11" ry="11" style="stroke:#222222;stroke-width:1.0;"/><ellipse cx="182.5" cy="162.3441" fill="#222222" rx="6" ry="6" style="stroke:#909090;stroke-width:1.0;"/><polygon fill="#FFD700" filter="url(#f18d3st3fiyhu9)" points="66.5,194.3441,141.5,194.3441,153.5,206.3441,141.5,218.3441,66.5,218.3441,54.5,206.3441,66.5,194.3441" style="stroke:#181818;stroke-width:0.5;"/><text fill="#000000" font-family="sans-serif" font-size="11" lengthAdjust="spacing" textLength="75" x="66.5" y="210.6121">levels.empty?</text><text fill="#000000" font-family="sans-serif" font-size="11" lengthAdjust="spacing" textLength="19" x="153.5" y="203.1211">yes</text><ellipse cx="194.5" cy="206.3441" fill="#FFFFFF" filter="url(#f18d3st3fiyhu9)" rx="11" ry="11" style="stroke:#222222;stroke-width:1.0;"/><ellipse cx="194.5" cy="206.3441" fill="#222222" rx="6" ry="6" style="stroke:#909090;stroke-width:1.0;"/><polygon fill="#FFD700" filter="url(#f18d3st3fiyhu9)" points="33,287.8351,175,287.8351,187,299.8351,175,311.8351,33,311.8351,21,299.8351,33,287.8351" style="stroke:#181818;stroke-width:0.5;"/><text fill="#000000" font-family="sans-serif" font-size="11" lengthAdjust="spacing" textLength="142" x="33" y="304.103">escalation_times.current?</text><text fill="#000000" font-family="sans-serif" font-size="11" lengthAdjust="spacing" textLength="14" x="187" y="296.6121">no</text><ellipse cx="223" cy="299.8351" fill="#FFFFFF" filter="url(#f18d3st3fiyhu9)" rx="11" ry="11" style="stroke:#222222;stroke-width:1.0;"/><ellipse cx="223" cy="299.8351" fill="#222222" rx="6" ry="6" style="stroke:#909090;stroke-width:1.0;"/><polygon fill="#FFD700" filter="url(#f18d3st3fiyhu9)" points="32,238.3441,176,238.3441,188,250.3441,176,262.3441,32,262.3441,20,250.3441,32,238.3441" style="stroke:#181818;stroke-width:0.5;"/><text fill="#000000" font-family="sans-serif" font-size="11" lengthAdjust="spacing" textLength="19" x="108" y="274.103">yes</text><text fill="#000000" font-family="sans-serif" font-size="11" lengthAdjust="spacing" textLength="144" x="32" y="254.6121">escalation_times.present?</text><text fill="#000000" font-family="sans-serif" font-size="11" lengthAdjust="spacing" textLength="14" x="188" y="247.1211">no</text><polygon fill="#FFD700" filter="url(#f18d3st3fiyhu9)" points="104,343.8351,116,355.8351,104,367.8351,92,355.8351,104,343.8351" style="stroke:#181818;stroke-width:0.5;"/><rect fill="#FFFFE0" filter="url(#f18d3st3fiyhu9)" height="36.3441" rx="5" ry="5" style="stroke:#181818;stroke-width:0.5;" width="134" x="37" y="387.8351"/><text fill="#000000" font-family="sans-serif" font-size="12" lengthAdjust="spacing" textLength="114" x="47" y="410.6631">process thresholds</text><ellipse cx="104" cy="455.1792" fill="#FFFFFF" filter="url(#f18d3st3fiyhu9)" rx="11" ry="11" style="stroke:#222222;stroke-width:1.0;"/><ellipse cx="104" cy="455.1792" fill="#222222" rx="6" ry="6" style="stroke:#909090;stroke-width:1.0;"/><line style="stroke:#181818;stroke-width:1.0;" x1="104" x2="104" y1="30" y2="50"/><polygon fill="#181818" points="100,40,104,50,108,40,104,44" style="stroke:#181818;stroke-width:1.0;"/><line style="stroke:#181818;stroke-width:1.0;" x1="104" x2="104" y1="130.3441" y2="150.3441"/><polygon fill="#181818" points="100,140.3441,104,150.3441,108,140.3441,104,144.3441" style="stroke:#181818;stroke-width:1.0;"/><line style="stroke:#181818;stroke-width:1.0;" x1="148" x2="173" y1="118.3441" y2="118.3441"/><polygon fill="#181818" points="163,114.3441,173,118.3441,163,122.3441,167,118.3441" style="stroke:#181818;stroke-width:1.0;"/><line style="stroke:#181818;stroke-width:1.0;" x1="104" x2="104" y1="86.3441" y2="106.3441"/><polygon fill="#181818" points="100,96.3441,104,106.3441,108,96.3441,104,100.3441" style="stroke:#181818;stroke-width:1.0;"/><line style="stroke:#181818;stroke-width:1.0;" x1="104" x2="104" y1="174.3441" y2="194.3441"/><polygon fill="#181818" points="100,184.3441,104,194.3441,108,184.3441,104,188.3441" style="stroke:#181818;stroke-width:1.0;"/><line style="stroke:#181818;stroke-width:1.0;" x1="141.5" x2="171.5" y1="162.3441" y2="162.3441"/><polygon fill="#181818" points="161.5,158.3441,171.5,162.3441,161.5,166.3441,165.5,162.3441" style="stroke:#181818;stroke-width:1.0;"/><line style="stroke:#181818;stroke-width:1.0;" x1="104" x2="104" y1="218.3441" y2="238.3441"/><polygon fill="#181818" points="100,228.3441,104,238.3441,108,228.3441,104,232.3441" style="stroke:#181818;stroke-width:1.0;"/><line style="stroke:#181818;stroke-width:1.0;" x1="153.5" x2="183.5" y1="206.3441" y2="206.3441"/><polygon fill="#181818" points="173.5,202.3441,183.5,206.3441,173.5,210.3441,177.5,206.3441" style="stroke:#181818;stroke-width:1.0;"/><line style="stroke:#181818;stroke-width:1.0;" x1="104" x2="104" y1="311.8351" y2="343.8351"/><polygon fill="#181818" points="100,333.8351,104,343.8351,108,333.8351,104,337.8351" style="stroke:#181818;stroke-width:1.0;"/><line style="stroke:#181818;stroke-width:1.0;" x1="187" x2="212" y1="299.8351" y2="299.8351"/><polygon fill="#181818" points="202,295.8351,212,299.8351,202,303.8351,206,299.8351" style="stroke:#181818;stroke-width:1.0;"/><line style="stroke:#181818;stroke-width:1.0;" x1="104" x2="104" y1="262.3441" y2="287.8351"/><polygon fill="#181818" points="100,277.8351,104,287.8351,108,277.8351,104,281.8351" style="stroke:#181818;stroke-width:1.0;"/><line style="stroke:#181818;stroke-width:1.0;" x1="188" x2="248" y1="250.3441" y2="250.3441"/><polygon fill="#181818" points="244,313.8351,248,323.8351,252,313.8351,248,317.8351" style="stroke:#181818;stroke-width:1.0;"/><line style="stroke:#181818;stroke-width:1.0;" x1="248" x2="248" y1="250.3441" y2="355.8351"/><line style="stroke:#181818;stroke-width:1.0;" x1="248" x2="116" y1="355.8351" y2="355.8351"/><polygon fill="#181818" points="126,351.8351,116,355.8351,126,359.8351,122,355.8351" style="stroke:#181818;stroke-width:1.0;"/><line style="stroke:#181818;stroke-width:1.0;" x1="104" x2="104" y1="367.8351" y2="387.8351"/><polygon fill="#181818" points="100,377.8351,104,387.8351,108,377.8351,104,381.8351" style="stroke:#181818;stroke-width:1.0;"/><line style="stroke:#181818;stroke-width:1.0;" x1="104" x2="104" y1="424.1792" y2="444.1792"/><polygon fill="#181818" points="100,434.1792,104,444.1792,108,434.1792,104,438.1792" style="stroke:#181818;stroke-width:1.0;"/><!--SRC=[XSvB2iCm30JGlK-XxfAD3v0iUfJYsWeH-8Ub17BxYhYKKW9TMdx3p4rMJ0Y9cY-6nJKnqrQ34mI_kfmnWbw5MCZFXXOOd4YZfzrTf70VGVCPXbn60ofBDPW3BQTKig7D53_iGBvm4NUCR35LEVvGPE-YpYdv8PIGRMt8cEKtTcdzrjgtxQFV7G2zHPTW_-hlgRRYaLapMhMM67WsP-85]--></g></svg>