<?xml version="1.0" encoding="us-ascii" standalone="no"?><svg xmlns="http://www.w3.org/2000/svg" xmlns:xlink="http://www.w3.org/1999/xlink" contentStyleType="text/css" height="540px" preserveAspectRatio="none" style="width:306px;height:540px;background:#FFFFFF;" version="1.1" viewBox="0 0 306 540" width="306px" zoomAndPan="magnify"><defs><filter height="300%" id="f1nhg83ymt5wpc" width="300%" x="-1" y="-1"><feGaussianBlur result="blurOut" stdDeviation="2.0"/><feColorMatrix in="blurOut" result="blurOut2" type="matrix" values="0 0 0 0 0 0 0 0 0 0 0 0 0 0 0 0 0 0 .4 0"/><feOffset dx="4.0" dy="4.0" in="blurOut2" result="blurOut3"/><feBlend in="SourceGraphic" in2="blurOut3" mode="normal"/></filter></defs><g><text fill="#000000" font-family="sans-serif" font-size="14" font-weight="bold" lengthAdjust="spacing" textLength="140.875" x="81.0625" y="34.9659">Check for Escalation</text><ellipse cx="127.5" cy="60.0679" fill="#FFFFFF" filter="url(#f1nhg83ymt5wpc)" rx="10" ry="10" style="stroke:#222222;stroke-width:1.0;"/><polygon fill="#FFD700" filter="url(#f1nhg83ymt5wpc)" points="95.5,90.0679,159.5,90.0679,171.5,102.0679,159.5,114.0679,95.5,114.0679,83.5,102.0679,95.5,90.0679" style="stroke:#181818;stroke-width:0.5;"/><text fill="#000000" font-family="sans-serif" font-size="11" lengthAdjust="spacing" textLength="64" x="95.5" y="106.3359">attrib.valid?</text><text fill="#000000" font-family="sans-serif" font-size="11" lengthAdjust="spacing" textLength="14" x="171.5" y="98.8449">no</text><ellipse cx="207.5" cy="102.0679" fill="#FFFFFF" filter="url(#f1nhg83ymt5wpc)" rx="11" ry="11" style="stroke:#222222;stroke-width:1.0;"/><ellipse cx="207.5" cy="102.0679" fill="#222222" rx="6" ry="6" style="stroke:#909090;stroke-width:1.0;"/><polygon fill="#FFD700" filter="url(#f1nhg83ymt5wpc)" points="102,134.0679,153,134.0679,165,146.0679,153,158.0679,102,158.0679,90,146.0679,102,134.0679" style="stroke:#181818;stroke-width:0.5;"/><text fill="#000000" font-family="sans-serif" font-size="11" lengthAdjust="spacing" textLength="51" x="102" y="150.3359">value.nil?</text><text fill="#000000" font-family="sans-serif" font-size="11" lengthAdjust="spacing" textLength="19" x="165" y="142.8449">yes</text><ellipse cx="206" cy="146.0679" fill="#FFFFFF" filter="url(#f1nhg83ymt5wpc)" rx="11" ry="11" style="stroke:#222222;stroke-width:1.0;"/><ellipse cx="206" cy="146.0679" fill="#222222" rx="6" ry="6" style="stroke:#909090;stroke-width:1.0;"/><polygon fill="#FFD700" filter="url(#f1nhg83ymt5wpc)" points="32,178.0679,223,178.0679,235,190.0679,223,202.0679,32,202.0679,20,190.0679,32,178.0679" style="stroke:#181818;stroke-width:0.5;"/><text fill="#000000" font-family="sans-serif" font-size="11" lengthAdjust="spacing" textLength="14" x="131.5" y="213.8268">no</text><text fill="#000000" font-family="sans-serif" font-size="11" lengthAdjust="spacing" textLength="191" x="32" y="194.3359">attrib == 'last_sent' &amp;&amp; queued == 0</text><text fill="#000000" font-family="sans-serif" font-size="11" lengthAdjust="spacing" textLength="19" x="235" y="186.8449">yes</text><ellipse cx="276" cy="190.0679" fill="#FFFFFF" filter="url(#f1nhg83ymt5wpc)" rx="11" ry="11" style="stroke:#222222;stroke-width:1.0;"/><ellipse cx="276" cy="190.0679" fill="#222222" rx="6" ry="6" style="stroke:#909090;stroke-width:1.0;"/><polygon fill="#FFD700" filter="url(#f1nhg83ymt5wpc)" points="90,235.3268,165,235.3268,177,247.3268,165,259.3268,90,259.3268,78,247.3268,90,235.3268" style="stroke:#181818;stroke-width:0.5;"/><text fill="#000000" font-family="sans-serif" font-size="11" lengthAdjust="spacing" textLength="14" x="131.5" y="271.0857">no</text><text fill="#000000" font-family="sans-serif" font-size="11" lengthAdjust="spacing" textLength="75" x="90" y="251.5948">levels.empty?</text><text fill="#000000" font-family="sans-serif" font-size="11" lengthAdjust="spacing" textLength="19" x="177" y="244.1039">yes</text><ellipse cx="218" cy="247.3268" fill="#FFFFFF" filter="url(#f1nhg83ymt5wpc)" rx="11" ry="11" style="stroke:#222222;stroke-width:1.0;"/><ellipse cx="218" cy="247.3268" fill="#222222" rx="6" ry="6" style="stroke:#909090;stroke-width:1.0;"/><polygon fill="#FFD700" filter="url(#f1nhg83ymt5wpc)" points="56.5,342.0767,198.5,342.0767,210.5,354.0767,198.5,366.0767,56.5,366.0767,44.5,354.0767,56.5,342.0767" style="stroke:#181818;stroke-width:0.5;"/><text fill="#000000" font-family="sans-serif" font-size="11" lengthAdjust="spacing" textLength="19" x="131.5" y="377.8356">yes</text><text fill="#000000" font-family="sans-serif" font-size="11" lengthAdjust="spacing" textLength="142" x="56.5" y="358.3447">escalation_times.current?</text><text fill="#000000" font-family="sans-serif" font-size="11" lengthAdjust="spacing" textLength="14" x="210.5" y="350.8537">no</text><ellipse cx="246.5" cy="354.0767" fill="#FFFFFF" filter="url(#f1nhg83ymt5wpc)" rx="11" ry="11" style="stroke:#222222;stroke-width:1.0;"/><ellipse cx="246.5" cy="354.0767" fill="#222222" rx="6" ry="6" style="stroke:#909090;stroke-width:1.0;"/><polygon fill="#FFD700" filter="url(#f1nhg83ymt5wpc)" points="55.5,292.5857,199.5,292.5857,211.5,304.5857,199.5,316.5857,55.5,316.5857,43.5,304.5857,55.5,292.5857" style="stroke:#181818;stroke-width:0.5;"/><text fill="#000000" font-family="sans-serif" font-size="11" lengthAdjust="spacing" textLength="19" x="131.5" y="328.3447">yes</text><text fill="#000000" font-family="sans-serif" font-size="11" lengthAdjust="spacing" textLength="144" x="55.5" y="308.8537">escalation_times.present?</text><text fill="#000000" font-family="sans-serif" font-size="11" lengthAdjust="spacing" textLength="14" x="211.5" y="301.3628">no</text><polygon fill="#FFD700" filter="url(#f1nhg83ymt5wpc)" points="127.5,399.5676,139.5,411.5676,127.5,423.5676,115.5,411.5676,127.5,399.5676" style="stroke:#181818;stroke-width:0.5;"/><rect fill="#FFFFE0" filter="url(#f1nhg83ymt5wpc)" height="36.3441" rx="5" ry="5" style="stroke:#181818;stroke-width:0.5;" width="134" x="60.5" y="443.5676"/><text fill="#000000" font-family="sans-serif" font-size="12" lengthAdjust="spacing" textLength="114" x="70.5" y="466.3957">process thresholds</text><ellipse cx="127.5" cy="510.9117" fill="#FFFFFF" filter="url(#f1nhg83ymt5wpc)" rx="11" ry="11" style="stroke:#222222;stroke-width:1.0;"/><ellipse cx="127.5" cy="510.9117" fill="#222222" rx="6" ry="6" style="stroke:#909090;stroke-width:1.0;"/><line style="stroke:#181818;stroke-width:1.0;" x1="127.5" x2="127.5" y1="114.0679" y2="134.0679"/><polygon fill="#181818" points="123.5,124.0679,127.5,134.0679,131.5,124.0679,127.5,128.0679" style="stroke:#181818;stroke-width:1.0;"/><line style="stroke:#181818;stroke-width:1.0;" x1="171.5" x2="196.5" y1="102.0679" y2="102.0679"/><polygon fill="#181818" points="186.5,98.0679,196.5,102.0679,186.5,106.0679,190.5,102.0679" style="stroke:#181818;stroke-width:1.0;"/><line style="stroke:#181818;stroke-width:1.0;" x1="127.5" x2="127.5" y1="70.0679" y2="90.0679"/><polygon fill="#181818" points="123.5,80.0679,127.5,90.0679,131.5,80.0679,127.5,84.0679" style="stroke:#181818;stroke-width:1.0;"/><line style="stroke:#181818;stroke-width:1.0;" x1="127.5" x2="127.5" y1="158.0679" y2="178.0679"/><polygon fill="#181818" points="123.5,168.0679,127.5,178.0679,131.5,168.0679,127.5,172.0679" style="stroke:#181818;stroke-width:1.0;"/><line style="stroke:#181818;stroke-width:1.0;" x1="165" x2="195" y1="146.0679" y2="146.0679"/><polygon fill="#181818" points="185,142.0679,195,146.0679,185,150.0679,189,146.0679" style="stroke:#181818;stroke-width:1.0;"/><line style="stroke:#181818;stroke-width:1.0;" x1="127.5" x2="127.5" y1="202.0679" y2="235.3268"/><polygon fill="#181818" points="123.5,225.3268,127.5,235.3268,131.5,225.3268,127.5,229.3268" style="stroke:#181818;stroke-width:1.0;"/><line style="stroke:#181818;stroke-width:1.0;" x1="235" x2="265" y1="190.0679" y2="190.0679"/><polygon fill="#181818" points="255,186.0679,265,190.0679,255,194.0679,259,190.0679" style="stroke:#181818;stroke-width:1.0;"/><line style="stroke:#181818;stroke-width:1.0;" x1="127.5" x2="127.5" y1="259.3268" y2="292.5857"/><polygon fill="#181818" points="123.5,282.5857,127.5,292.5857,131.5,282.5857,127.5,286.5857" style="stroke:#181818;stroke-width:1.0;"/><line style="stroke:#181818;stroke-width:1.0;" x1="177" x2="207" y1="247.3268" y2="247.3268"/><polygon fill="#181818" points="197,243.3268,207,247.3268,197,251.3268,201,247.3268" style="stroke:#181818;stroke-width:1.0;"/><line style="stroke:#181818;stroke-width:1.0;" x1="127.5" x2="127.5" y1="366.0767" y2="399.5676"/><polygon fill="#181818" points="123.5,389.5676,127.5,399.5676,131.5,389.5676,127.5,393.5676" style="stroke:#181818;stroke-width:1.0;"/><line style="stroke:#181818;stroke-width:1.0;" x1="210.5" x2="235.5" y1="354.0767" y2="354.0767"/><polygon fill="#181818" points="225.5,350.0767,235.5,354.0767,225.5,358.0767,229.5,354.0767" style="stroke:#181818;stroke-width:1.0;"/><line style="stroke:#181818;stroke-width:1.0;" x1="127.5" x2="127.5" y1="316.5857" y2="342.0767"/><polygon fill="#181818" points="123.5,332.0767,127.5,342.0767,131.5,332.0767,127.5,336.0767" style="stroke:#181818;stroke-width:1.0;"/><line style="stroke:#181818;stroke-width:1.0;" x1="211.5" x2="279.5" y1="304.5857" y2="304.5857"/><polygon fill="#181818" points="275.5,369.5676,279.5,379.5676,283.5,369.5676,279.5,373.5676" style="stroke:#181818;stroke-width:1.0;"/><line style="stroke:#181818;stroke-width:1.0;" x1="279.5" x2="279.5" y1="304.5857" y2="411.5676"/><line style="stroke:#181818;stroke-width:1.0;" x1="279.5" x2="139.5" y1="411.5676" y2="411.5676"/><polygon fill="#181818" points="149.5,407.5676,139.5,411.5676,149.5,415.5676,145.5,411.5676" style="stroke:#181818;stroke-width:1.0;"/><line style="stroke:#181818;stroke-width:1.0;" x1="127.5" x2="127.5" y1="423.5676" y2="443.5676"/><polygon fill="#181818" points="123.5,433.5676,127.5,443.5676,131.5,433.5676,127.5,437.5676" style="stroke:#181818;stroke-width:1.0;"/><line style="stroke:#181818;stroke-width:1.0;" x1="127.5" x2="127.5" y1="479.9117" y2="499.9117"/><polygon fill="#181818" points="123.5,489.9117,127.5,499.9117,131.5,489.9117,127.5,493.9117" style="stroke:#181818;stroke-width:1.0;"/><!--SRC=[ZP2z3i8m30RtF8LP-5agPX1YG3n75TAlgaMQbDX5ukq910527LYJyvsJcNReGJqd5urHLWywT71dQcEYepZhhN8CneZQf8PRMbhLnAVgQZqt-nLbGw1bY2j391e7Wz1m-oGpCg8AxD_O3JB15IFjThJmLhGM15tGV4wN4IEQnyLwqk059VrnULppSOL-qDl-to6y7rehzv1gI7WiyIkOPDsOqZTRlk9L8ogzbw0aVrVO32awY6H1xdRHDx8rp_4x]--></g></svg>