<?xml version="1.0" encoding="UTF-8" standalone="no"?><svg xmlns="http://www.w3.org/2000/svg" xmlns:xlink="http://www.w3.org/1999/xlink" contentStyleType="text/css" height="1086px" preserveAspectRatio="none" style="width:749px;height:1086px;background:#FFFFFF;" version="1.1" viewBox="0 0 749 1086" width="749px" zoomAndPan="magnify">
    <defs>
        <filter height="300%" id="f6isb7nu1kknl" width="300%" x="-1" y="-1">
            <feGaussianBlur result="blurOut" stdDeviation="2.0" />
            <feColorMatrix in="blurOut" result="blurOut2" type="matrix" values="0 0 0 0 0 0 0 0 0 0 0 0 0 0 0 0 0 0 .4 0" />
            <feOffset dx="4.0" dy="4.0" in="blurOut2" result="blurOut3" />
            <feBlend in="SourceGraphic" in2="blurOut3" mode="normal" />
        </filter>
    </defs>
    <g>
        <!--MD5=[4f1f3706c1a355a8488e154afcaed5df]
class Location-->
        <g id="elem_Location">
            <rect codeLine="5" fill="#FFF1D9" filter="url(#f6isb7nu1kknl)" height="64.2969" id="Location" rx="5" ry="5" style="stroke:#181818;stroke-width:0.5;" width="90" x="272.5" y="7" />
            <rect fill="#FFD080" height="32" rx="5" ry="5" style="stroke:#FFD080;stroke-width:0.5;" width="90" x="272.5" y="7" />
            <rect fill="#FFD080" height="5" style="stroke:#FFD080;stroke-width:0.5;" width="90" x="272.5" y="34" />
            <rect codeLine="5" fill="none" height="64.2969" id="Location" rx="5" ry="5" style="stroke:#181818;stroke-width:0.5;" width="90" x="272.5" y="7" />
            <ellipse cx="287.5" cy="23" fill="#ADD1B2" rx="11" ry="11" style="stroke:#181818;stroke-width:1.0;" />
            <path d="M290.4688,28.6406 Q289.8906,28.9375 289.25,29.0781 Q288.6094,29.2344 287.9063,29.2344 Q285.4063,29.2344 284.0781,27.5938 Q282.7656,25.9375 282.7656,22.8125 Q282.7656,19.6875 284.0781,18.0313 Q285.4063,16.375 287.9063,16.375 Q288.6094,16.375 289.25,16.5313 Q289.9063,16.6875 290.4688,16.9844 L290.4688,19.7031 Q289.8438,19.125 289.25,18.8594 Q288.6563,18.5781 288.0313,18.5781 Q286.6875,18.5781 286,19.6563 Q285.3125,20.7188 285.3125,22.8125 Q285.3125,24.9063 286,25.9844 Q286.6875,27.0469 288.0313,27.0469 Q288.6563,27.0469 289.25,26.7813 Q289.8438,26.5 290.4688,25.9219 L290.4688,28.6406 Z " fill="#000000" /><text fill="#000000" font-family="sans-serif" font-size="14" lengthAdjust="spacing" textLength="58" x="301.5" y="27.8467">Location</text>
            <line style="stroke:#181818;stroke-width:0.5;" x1="273.5" x2="361.5" y1="39" y2="39" /><text fill="#000000" font-family="sans-serif" font-size="14" lengthAdjust="spacing" textLength="12" x="278.5" y="55.9951">...</text>
            <line style="stroke:#181818;stroke-width:0.5;" x1="273.5" x2="361.5" y1="63.2969" y2="63.2969" />
        </g>
        <!--MD5=[c62846c0c9715c1d98dd5933e5913037]
class Host-->
        <g id="elem_Host">
            <rect codeLine="8" fill="#FFF1D9" filter="url(#f6isb7nu1kknl)" height="64.2969" id="Host" rx="5" ry="5" style="stroke:#181818;stroke-width:0.5;" width="64" x="285.5" y="131" />
            <rect fill="#FFD080" height="32" rx="5" ry="5" style="stroke:#FFD080;stroke-width:0.5;" width="64" x="285.5" y="131" />
            <rect fill="#FFD080" height="5" style="stroke:#FFD080;stroke-width:0.5;" width="64" x="285.5" y="158" />
            <rect codeLine="8" fill="none" height="64.2969" id="Host" rx="5" ry="5" style="stroke:#181818;stroke-width:0.5;" width="64" x="285.5" y="131" />
            <ellipse cx="300.5" cy="147" fill="#ADD1B2" rx="11" ry="11" style="stroke:#181818;stroke-width:1.0;" />
            <path d="M303.4688,152.6406 Q302.8906,152.9375 302.25,153.0781 Q301.6094,153.2344 300.9063,153.2344 Q298.4063,153.2344 297.0781,151.5938 Q295.7656,149.9375 295.7656,146.8125 Q295.7656,143.6875 297.0781,142.0313 Q298.4063,140.375 300.9063,140.375 Q301.6094,140.375 302.25,140.5313 Q302.9063,140.6875 303.4688,140.9844 L303.4688,143.7031 Q302.8438,143.125 302.25,142.8594 Q301.6563,142.5781 301.0313,142.5781 Q299.6875,142.5781 299,143.6563 Q298.3125,144.7188 298.3125,146.8125 Q298.3125,148.9063 299,149.9844 Q299.6875,151.0469 301.0313,151.0469 Q301.6563,151.0469 302.25,150.7813 Q302.8438,150.5 303.4688,149.9219 L303.4688,152.6406 Z " fill="#000000" /><text fill="#000000" font-family="sans-serif" font-size="14" lengthAdjust="spacing" textLength="32" x="314.5" y="151.8467">Host</text>
            <line style="stroke:#181818;stroke-width:0.5;" x1="286.5" x2="348.5" y1="163" y2="163" /><text fill="#000000" font-family="sans-serif" font-size="14" lengthAdjust="spacing" textLength="12" x="291.5" y="179.9951">...</text>
            <line style="stroke:#181818;stroke-width:0.5;" x1="286.5" x2="348.5" y1="187.2969" y2="187.2969" />
        </g>
        <!--MD5=[9a4e82909ed2a34282a01ef45d4a08d6]
class SoftwareConnection-->
        <g id="elem_SoftwareConnection">
            <rect codeLine="11" fill="#FFF1D9" filter="url(#f6isb7nu1kknl)" height="64.2969" id="SoftwareConnection" rx="5" ry="5" style="stroke:#181818;stroke-width:0.5;" width="172" x="384.5" y="131" />
            <rect fill="#FFD080" height="32" rx="5" ry="5" style="stroke:#FFD080;stroke-width:0.5;" width="172" x="384.5" y="131" />
            <rect fill="#FFD080" height="5" style="stroke:#FFD080;stroke-width:0.5;" width="172" x="384.5" y="158" />
            <rect codeLine="11" fill="none" height="64.2969" id="SoftwareConnection" rx="5" ry="5" style="stroke:#181818;stroke-width:0.5;" width="172" x="384.5" y="131" />
            <ellipse cx="399.5" cy="147" fill="#ADD1B2" rx="11" ry="11" style="stroke:#181818;stroke-width:1.0;" />
            <path d="M402.4688,152.6406 Q401.8906,152.9375 401.25,153.0781 Q400.6094,153.2344 399.9063,153.2344 Q397.4063,153.2344 396.0781,151.5938 Q394.7656,149.9375 394.7656,146.8125 Q394.7656,143.6875 396.0781,142.0313 Q397.4063,140.375 399.9063,140.375 Q400.6094,140.375 401.25,140.5313 Q401.9063,140.6875 402.4688,140.9844 L402.4688,143.7031 Q401.8438,143.125 401.25,142.8594 Q400.6563,142.5781 400.0313,142.5781 Q398.6875,142.5781 398,143.6563 Q397.3125,144.7188 397.3125,146.8125 Q397.3125,148.9063 398,149.9844 Q398.6875,151.0469 400.0313,151.0469 Q400.6563,151.0469 401.25,150.7813 Q401.8438,150.5 402.4688,149.9219 L402.4688,152.6406 Z " fill="#000000" /><text fill="#000000" font-family="sans-serif" font-size="14" lengthAdjust="spacing" textLength="140" x="413.5" y="151.8467">SoftwareConnection</text>
            <line style="stroke:#181818;stroke-width:0.5;" x1="385.5" x2="555.5" y1="163" y2="163" /><text fill="#000000" font-family="sans-serif" font-size="14" lengthAdjust="spacing" textLength="12" x="390.5" y="179.9951">...</text>
            <line style="stroke:#181818;stroke-width:0.5;" x1="385.5" x2="555.5" y1="187.2969" y2="187.2969" />
        </g>
        <!--MD5=[c60af77fe5573b84a4aa4bce89659574]
class Server-->
        <g id="elem_Server">
            <rect codeLine="15" fill="#FFF1D9" filter="url(#f6isb7nu1kknl)" height="276.1563" id="Server" rx="5" ry="5" style="stroke:#181818;stroke-width:0.5;" width="249" x="270" y="255" />
            <rect fill="#FFD080" height="32" rx="5" ry="5" style="stroke:#FFD080;stroke-width:0.5;" width="249" x="270" y="255" />
            <rect fill="#FFD080" height="5" style="stroke:#FFD080;stroke-width:0.5;" width="249" x="270" y="282" />
            <rect codeLine="15" fill="none" height="276.1563" id="Server" rx="5" ry="5" style="stroke:#181818;stroke-width:0.5;" width="249" x="270" y="255" />
            <ellipse cx="368.25" cy="271" fill="#ADD1B2" rx="11" ry="11" style="stroke:#181818;stroke-width:1.0;" />
            <path d="M371.2188,276.6406 Q370.6406,276.9375 370,277.0781 Q369.3594,277.2344 368.6563,277.2344 Q366.1563,277.2344 364.8281,275.5938 Q363.5156,273.9375 363.5156,270.8125 Q363.5156,267.6875 364.8281,266.0313 Q366.1563,264.375 368.6563,264.375 Q369.3594,264.375 370,264.5313 Q370.6563,264.6875 371.2188,264.9844 L371.2188,267.7031 Q370.5938,267.125 370,266.8594 Q369.4063,266.5781 368.7813,266.5781 Q367.4375,266.5781 366.75,267.6563 Q366.0625,268.7188 366.0625,270.8125 Q366.0625,272.9063 366.75,273.9844 Q367.4375,275.0469 368.7813,275.0469 Q369.4063,275.0469 370,274.7813 Q370.5938,274.5 371.2188,273.9219 L371.2188,276.6406 Z " fill="#000000" /><text fill="#000000" font-family="sans-serif" font-size="14" lengthAdjust="spacing" textLength="44" x="388.75" y="275.8467">Server</text>
            <line style="stroke:#181818;stroke-width:0.5;" x1="271" x2="518" y1="287" y2="287" /><text fill="#000000" font-family="sans-serif" font-size="14" lengthAdjust="spacing" textLength="50" x="276" y="303.9951">host_id</text><text fill="#000000" font-family="sans-serif" font-size="14" lengthAdjust="spacing" textLength="87" x="276" y="320.292">name: string</text><text fill="#000000" font-family="sans-serif" font-size="14" lengthAdjust="spacing" textLength="69" x="276" y="336.5889">uid: string</text><text fill="#000000" font-family="sans-serif" font-size="14" lengthAdjust="spacing" textLength="112" x="276" y="352.8857">description: text</text><text fill="#000000" font-family="sans-serif" font-size="14" lengthAdjust="spacing" textLength="92" x="276" y="369.1826">api_url: string</text><text fill="#000000" font-family="sans-serif" font-size="14" lengthAdjust="spacing" textLength="106" x="276" y="385.4795">api_user: string</text><text fill="#000000" font-family="sans-serif" font-size="14" lengthAdjust="spacing" textLength="205" x="276" y="401.7764">api_password_ciphertext: text</text><text fill="#000000" font-family="sans-serif" font-size="14" lengthAdjust="spacing" textLength="237" x="276" y="418.0732">api_user_has_full_access: boolean</text><text fill="#000000" font-family="sans-serif" font-size="14" lengthAdjust="spacing" textLength="153" x="276" y="434.3701">api_verify_ssl: boolean</text><text fill="#000000" font-family="sans-serif" font-size="14" lengthAdjust="spacing" textLength="118" x="276" y="450.667">properties: jsonb</text><text fill="#000000" font-family="sans-serif" font-size="14" lengthAdjust="spacing" textLength="224" x="276" y="466.9639">last_channel_update: timestamp</text><text fill="#000000" font-family="sans-serif" font-size="14" lengthAdjust="spacing" textLength="155" x="276" y="483.2607">last_check: timestamp</text><text fill="#000000" font-family="sans-serif" font-size="14" lengthAdjust="spacing" textLength="179" x="276" y="499.5576">last_check_ok: timestamp</text><text fill="#000000" font-family="sans-serif" font-size="14" lengthAdjust="spacing" textLength="171" x="276" y="515.8545">manual_update: boolean</text>
            <line style="stroke:#181818;stroke-width:0.5;" x1="271" x2="518" y1="523.1563" y2="523.1563" />
        </g>
        <!--MD5=[1e4e6ac1845d89d680410515caa0c0ac]
class Channel-->
        <g id="elem_Channel">
            <rect codeLine="32" fill="#FFF1D9" filter="url(#f6isb7nu1kknl)" height="96.8906" id="Channel" rx="5" ry="5" style="stroke:#181818;stroke-width:0.5;" width="133" x="7" y="688.5" />
            <rect fill="#FFD080" height="32" rx="5" ry="5" style="stroke:#FFD080;stroke-width:0.5;" width="133" x="7" y="688.5" />
            <rect fill="#FFD080" height="5" style="stroke:#FFD080;stroke-width:0.5;" width="133" x="7" y="715.5" />
            <rect codeLine="32" fill="none" height="96.8906" id="Channel" rx="5" ry="5" style="stroke:#181818;stroke-width:0.5;" width="133" x="7" y="688.5" />
            <ellipse cx="41.8" cy="704.5" fill="#ADD1B2" rx="11" ry="11" style="stroke:#181818;stroke-width:1.0;" />
            <path d="M44.7688,710.1406 Q44.1906,710.4375 43.55,710.5781 Q42.9094,710.7344 42.2063,710.7344 Q39.7063,710.7344 38.3781,709.0938 Q37.0656,707.4375 37.0656,704.3125 Q37.0656,701.1875 38.3781,699.5313 Q39.7063,697.875 42.2063,697.875 Q42.9094,697.875 43.55,698.0313 Q44.2063,698.1875 44.7688,698.4844 L44.7688,701.2031 Q44.1438,700.625 43.55,700.3594 Q42.9563,700.0781 42.3313,700.0781 Q40.9875,700.0781 40.3,701.1563 Q39.6125,702.2188 39.6125,704.3125 Q39.6125,706.4063 40.3,707.4844 Q40.9875,708.5469 42.3313,708.5469 Q42.9563,708.5469 43.55,708.2813 Q44.1438,708 44.7688,707.4219 L44.7688,710.1406 Z " fill="#000000" /><text fill="#000000" font-family="sans-serif" font-size="14" lengthAdjust="spacing" textLength="57" x="60.2" y="709.3467">Channel</text>
            <line style="stroke:#181818;stroke-width:0.5;" x1="8" x2="139" y1="720.5" y2="720.5" /><text fill="#000000" font-family="sans-serif" font-size="14" lengthAdjust="spacing" textLength="69" x="13" y="737.4951">uid: string</text><text fill="#000000" font-family="sans-serif" font-size="14" lengthAdjust="spacing" textLength="118" x="13" y="753.792">properties: jsonb</text><text fill="#000000" font-family="sans-serif" font-size="14" lengthAdjust="spacing" textLength="121" x="13" y="770.0889">enabled: boolean</text>
            <line style="stroke:#181818;stroke-width:0.5;" x1="8" x2="139" y1="777.3906" y2="777.3906" />
        </g>
        <!--MD5=[c7e4a3a7f219bd375d4e17cb1ffb3909]
class ChannelStatistic-->
        <g id="elem_ChannelStatistic">
            <rect codeLine="38" fill="#FFF1D9" filter="url(#f6isb7nu1kknl)" height="292.4531" id="ChannelStatistic" rx="5" ry="5" style="stroke:#181818;stroke-width:0.5;" width="248" x="175.5" y="591" />
            <rect fill="#FFD080" height="32" rx="5" ry="5" style="stroke:#FFD080;stroke-width:0.5;" width="248" x="175.5" y="591" />
            <rect fill="#FFD080" height="5" style="stroke:#FFD080;stroke-width:0.5;" width="248" x="175.5" y="618" />
            <rect codeLine="38" fill="none" height="292.4531" id="ChannelStatistic" rx="5" ry="5" style="stroke:#181818;stroke-width:0.5;" width="248" x="175.5" y="591" />
            <ellipse cx="239.75" cy="607" fill="#ADD1B2" rx="11" ry="11" style="stroke:#181818;stroke-width:1.0;" />
            <path d="M242.7188,612.6406 Q242.1406,612.9375 241.5,613.0781 Q240.8594,613.2344 240.1563,613.2344 Q237.6563,613.2344 236.3281,611.5938 Q235.0156,609.9375 235.0156,606.8125 Q235.0156,603.6875 236.3281,602.0313 Q237.6563,600.375 240.1563,600.375 Q240.8594,600.375 241.5,600.5313 Q242.1563,600.6875 242.7188,600.9844 L242.7188,603.7031 Q242.0938,603.125 241.5,602.8594 Q240.9063,602.5781 240.2813,602.5781 Q238.9375,602.5781 238.25,603.6563 Q237.5625,604.7188 237.5625,606.8125 Q237.5625,608.9063 238.25,609.9844 Q238.9375,611.0469 240.2813,611.0469 Q240.9063,611.0469 241.5,610.7813 Q242.0938,610.5 242.7188,609.9219 L242.7188,612.6406 Z " fill="#000000" /><text fill="#000000" font-family="sans-serif" font-size="14" lengthAdjust="spacing" textLength="111" x="260.25" y="611.8467">ChannelStatistic</text>
            <line style="stroke:#181818;stroke-width:0.5;" x1="176.5" x2="422.5" y1="623" y2="623" /><text fill="#000000" font-family="sans-serif" font-size="14" lengthAdjust="spacing" textLength="62" x="181.5" y="639.9951">server_id</text><text fill="#000000" font-family="sans-serif" font-size="14" lengthAdjust="spacing" textLength="74" x="181.5" y="656.292">channel_id</text><text fill="#000000" font-family="sans-serif" font-size="14" lengthAdjust="spacing" textLength="119" x="181.5" y="672.5889">server_uid: string</text><text fill="#000000" font-family="sans-serif" font-size="14" lengthAdjust="spacing" textLength="131" x="181.5" y="688.8857">channel_uid: string</text><text fill="#000000" font-family="sans-serif" font-size="14" lengthAdjust="spacing" textLength="149" x="181.5" y="705.1826">meta_data_id: integer</text><text fill="#000000" font-family="sans-serif" font-size="14" lengthAdjust="spacing" textLength="87" x="181.5" y="721.4795">name: string</text><text fill="#000000" font-family="sans-serif" font-size="14" lengthAdjust="spacing" textLength="83" x="181.5" y="737.7764">state: string</text><text fill="#000000" font-family="sans-serif" font-size="14" lengthAdjust="spacing" textLength="128" x="181.5" y="754.0732">status_type: string</text><text fill="#000000" font-family="sans-serif" font-size="14" lengthAdjust="spacing" textLength="117" x="181.5" y="770.3701">received: integer</text><text fill="#000000" font-family="sans-serif" font-size="14" lengthAdjust="spacing" textLength="89" x="181.5" y="786.667">sent: integer</text><text fill="#000000" font-family="sans-serif" font-size="14" lengthAdjust="spacing" textLength="91" x="181.5" y="802.9639">error: integer</text><text fill="#000000" font-family="sans-serif" font-size="14" lengthAdjust="spacing" textLength="105" x="181.5" y="819.2607">filtered: integer</text><text fill="#000000" font-family="sans-serif" font-size="14" lengthAdjust="spacing" textLength="112" x="181.5" y="835.5576">queued: integer</text><text fill="#000000" font-family="sans-serif" font-size="14" lengthAdjust="spacing" textLength="112" x="181.5" y="851.8545">condition: string</text><text fill="#000000" font-family="sans-serif" font-size="14" lengthAdjust="spacing" textLength="236" x="181.5" y="868.1514">last_condition_change: timestamp</text>
            <line style="stroke:#181818;stroke-width:0.5;" x1="176.5" x2="422.5" y1="875.4531" y2="875.4531" />
        </g>
        <!--MD5=[13ebb944a94f76c7ef0a19d303697e17]
class ChannelCounter-->
        <g id="elem_ChannelCounter">
            <rect codeLine="56" fill="#FFF1D9" filter="url(#f6isb7nu1kknl)" height="194.6719" id="ChannelCounter" rx="5" ry="5" style="stroke:#181818;stroke-width:0.5;" width="161" x="74" y="295.5" />
            <rect fill="#FFD080" height="32" rx="5" ry="5" style="stroke:#FFD080;stroke-width:0.5;" width="161" x="74" y="295.5" />
            <rect fill="#FFD080" height="5" style="stroke:#FFD080;stroke-width:0.5;" width="161" x="74" y="322.5" />
            <rect codeLine="56" fill="none" height="194.6719" id="ChannelCounter" rx="5" ry="5" style="stroke:#181818;stroke-width:0.5;" width="161" x="74" y="295.5" />
            <ellipse cx="96.2" cy="311.5" fill="#ADD1B2" rx="11" ry="11" style="stroke:#181818;stroke-width:1.0;" />
            <path d="M99.1688,317.1406 Q98.5906,317.4375 97.95,317.5781 Q97.3094,317.7344 96.6063,317.7344 Q94.1063,317.7344 92.7781,316.0938 Q91.4656,314.4375 91.4656,311.3125 Q91.4656,308.1875 92.7781,306.5313 Q94.1063,304.875 96.6063,304.875 Q97.3094,304.875 97.95,305.0313 Q98.6063,305.1875 99.1688,305.4844 L99.1688,308.2031 Q98.5438,307.625 97.95,307.3594 Q97.3563,307.0781 96.7313,307.0781 Q95.3875,307.0781 94.7,308.1563 Q94.0125,309.2188 94.0125,311.3125 Q94.0125,313.4063 94.7,314.4844 Q95.3875,315.5469 96.7313,315.5469 Q97.3563,315.5469 97.95,315.2813 Q98.5438,315 99.1688,314.4219 L99.1688,317.1406 Z " fill="#000000" /><text fill="#000000" font-family="sans-serif" font-size="14" lengthAdjust="spacing" textLength="113" x="111.8" y="316.3467">ChannelCounter</text>
            <line style="stroke:#181818;stroke-width:0.5;" x1="75" x2="234" y1="327.5" y2="327.5" /><text fill="#000000" font-family="sans-serif" font-size="14" lengthAdjust="spacing" textLength="74" x="80" y="344.4951">channel_id</text><text fill="#000000" font-family="sans-serif" font-size="14" lengthAdjust="spacing" textLength="62" x="80" y="360.792">server_id</text><text fill="#000000" font-family="sans-serif" font-size="14" lengthAdjust="spacing" textLength="134" x="80" y="377.0889">channel_statistic_id</text><text fill="#000000" font-family="sans-serif" font-size="14" lengthAdjust="spacing" textLength="149" x="80" y="393.3857">meta_data_id: integer</text><text fill="#000000" font-family="sans-serif" font-size="14" lengthAdjust="spacing" textLength="117" x="80" y="409.6826">received: integer</text><text fill="#000000" font-family="sans-serif" font-size="14" lengthAdjust="spacing" textLength="89" x="80" y="425.9795">sent: integer</text><text fill="#000000" font-family="sans-serif" font-size="14" lengthAdjust="spacing" textLength="91" x="80" y="442.2764">error: integer</text><text fill="#000000" font-family="sans-serif" font-size="14" lengthAdjust="spacing" textLength="105" x="80" y="458.5732">filtered: integer</text><text fill="#000000" font-family="sans-serif" font-size="14" lengthAdjust="spacing" textLength="112" x="80" y="474.8701">queued: integer</text>
            <line style="stroke:#181818;stroke-width:0.5;" x1="75" x2="234" y1="482.1719" y2="482.1719" />
        </g>
        <!--MD5=[0df93ba7b86d6e3ff3f57d8b1170b96e]
class Alert-->
        <g id="elem_Alert">
            <rect codeLine="68" fill="#FFF1D9" filter="url(#f6isb7nu1kknl)" height="129.4844" id="Alert" rx="5" ry="5" style="stroke:#181818;stroke-width:0.5;" width="200" x="91.5" y="943" />
            <rect fill="#FFD080" height="32" rx="5" ry="5" style="stroke:#FFD080;stroke-width:0.5;" width="200" x="91.5" y="943" />
            <rect fill="#FFD080" height="5" style="stroke:#FFD080;stroke-width:0.5;" width="200" x="91.5" y="970" />
            <rect codeLine="68" fill="none" height="129.4844" id="Alert" rx="5" ry="5" style="stroke:#181818;stroke-width:0.5;" width="200" x="91.5" y="943" />
            <ellipse cx="171.75" cy="959" fill="#ADD1B2" rx="11" ry="11" style="stroke:#181818;stroke-width:1.0;" />
            <path d="M174.7188,964.6406 Q174.1406,964.9375 173.5,965.0781 Q172.8594,965.2344 172.1563,965.2344 Q169.6563,965.2344 168.3281,963.5938 Q167.0156,961.9375 167.0156,958.8125 Q167.0156,955.6875 168.3281,954.0313 Q169.6563,952.375 172.1563,952.375 Q172.8594,952.375 173.5,952.5313 Q174.1563,952.6875 174.7188,952.9844 L174.7188,955.7031 Q174.0938,955.125 173.5,954.8594 Q172.9063,954.5781 172.2813,954.5781 Q170.9375,954.5781 170.25,955.6563 Q169.5625,956.7188 169.5625,958.8125 Q169.5625,960.9063 170.25,961.9844 Q170.9375,963.0469 172.2813,963.0469 Q172.9063,963.0469 173.5,962.7813 Q174.0938,962.5 174.7188,961.9219 L174.7188,964.6406 Z " fill="#000000" /><text fill="#000000" font-family="sans-serif" font-size="14" lengthAdjust="spacing" textLength="31" x="192.25" y="963.8467">Alert</text>
            <line style="stroke:#181818;stroke-width:0.5;" x1="92.5" x2="290.5" y1="975" y2="975" /><text fill="#000000" font-family="sans-serif" font-size="14" lengthAdjust="spacing" textLength="74" x="97.5" y="991.9951">channel_id</text><text fill="#000000" font-family="sans-serif" font-size="14" lengthAdjust="spacing" textLength="62" x="97.5" y="1008.292">server_id</text><text fill="#000000" font-family="sans-serif" font-size="14" lengthAdjust="spacing" textLength="134" x="97.5" y="1024.5889">channel_statistic_id</text><text fill="#000000" font-family="sans-serif" font-size="14" lengthAdjust="spacing" textLength="188" x="97.5" y="1040.8857">type: string : alert, recovery</text><text fill="#000000" font-family="sans-serif" font-size="14" lengthAdjust="spacing" textLength="99" x="97.5" y="1057.1826">message: text</text>
            <line style="stroke:#181818;stroke-width:0.5;" x1="92.5" x2="290.5" y1="1064.4844" y2="1064.4844" />
        </g>
        <!--MD5=[5d3c9bb25b1b07c105e03cfa5bc0b7ee]
class Note-->
        <g id="elem_Note">
            <rect codeLine="76" fill="#FFF1D9" filter="url(#f6isb7nu1kknl)" height="129.4844" id="Note" rx="5" ry="5" style="stroke:#181818;stroke-width:0.5;" width="162" x="326.5" y="943" />
            <rect fill="#FFD080" height="32" rx="5" ry="5" style="stroke:#FFD080;stroke-width:0.5;" width="162" x="326.5" y="943" />
            <rect fill="#FFD080" height="5" style="stroke:#FFD080;stroke-width:0.5;" width="162" x="326.5" y="970" />
            <rect codeLine="76" fill="none" height="129.4844" id="Note" rx="5" ry="5" style="stroke:#181818;stroke-width:0.5;" width="162" x="326.5" y="943" />
            <ellipse cx="386.75" cy="959" fill="#ADD1B2" rx="11" ry="11" style="stroke:#181818;stroke-width:1.0;" />
            <path d="M389.7188,964.6406 Q389.1406,964.9375 388.5,965.0781 Q387.8594,965.2344 387.1563,965.2344 Q384.6563,965.2344 383.3281,963.5938 Q382.0156,961.9375 382.0156,958.8125 Q382.0156,955.6875 383.3281,954.0313 Q384.6563,952.375 387.1563,952.375 Q387.8594,952.375 388.5,952.5313 Q389.1563,952.6875 389.7188,952.9844 L389.7188,955.7031 Q389.0938,955.125 388.5,954.8594 Q387.9063,954.5781 387.2813,954.5781 Q385.9375,954.5781 385.25,955.6563 Q384.5625,956.7188 384.5625,958.8125 Q384.5625,960.9063 385.25,961.9844 Q385.9375,963.0469 387.2813,963.0469 Q387.9063,963.0469 388.5,962.7813 Q389.0938,962.5 389.7188,961.9219 L389.7188,964.6406 Z " fill="#000000" /><text fill="#000000" font-family="sans-serif" font-size="14" lengthAdjust="spacing" textLength="33" x="407.25" y="963.8467">Note</text>
            <line style="stroke:#181818;stroke-width:0.5;" x1="327.5" x2="487.5" y1="975" y2="975" /><text fill="#000000" font-family="sans-serif" font-size="14" lengthAdjust="spacing" textLength="74" x="332.5" y="991.9951">channel_id</text><text fill="#000000" font-family="sans-serif" font-size="14" lengthAdjust="spacing" textLength="62" x="332.5" y="1008.292">server_id</text><text fill="#000000" font-family="sans-serif" font-size="14" lengthAdjust="spacing" textLength="134" x="332.5" y="1024.5889">channel_statistic_id</text><text fill="#000000" font-family="sans-serif" font-size="14" lengthAdjust="spacing" textLength="50" x="332.5" y="1040.8857">user_id</text><text fill="#000000" font-family="sans-serif" font-size="14" lengthAdjust="spacing" textLength="150" x="332.5" y="1057.1826">type: string : ack, mail</text>
            <line style="stroke:#181818;stroke-width:0.5;" x1="327.5" x2="487.5" y1="1064.4844" y2="1064.4844" />
        </g>
        <!--MD5=[d19e87a2954ae03571d2212ad7d3f494]
class ServerConfiguration-->
        <g id="elem_ServerConfiguration">
            <rect codeLine="84" fill="#FFF1D9" filter="url(#f6isb7nu1kknl)" height="96.8906" id="ServerConfiguration" rx="5" ry="5" style="stroke:#181818;stroke-width:0.5;" width="181" x="554" y="344.5" />
            <rect fill="#FFD080" height="32" rx="5" ry="5" style="stroke:#FFD080;stroke-width:0.5;" width="181" x="554" y="344.5" />
            <rect fill="#FFD080" height="5" style="stroke:#FFD080;stroke-width:0.5;" width="181" x="554" y="371.5" />
            <rect codeLine="84" fill="none" height="96.8906" id="ServerConfiguration" rx="5" ry="5" style="stroke:#181818;stroke-width:0.5;" width="181" x="554" y="344.5" />
            <ellipse cx="574.85" cy="360.5" fill="#ADD1B2" rx="11" ry="11" style="stroke:#181818;stroke-width:1.0;" />
            <path d="M577.8188,366.1406 Q577.2406,366.4375 576.6,366.5781 Q575.9594,366.7344 575.2563,366.7344 Q572.7563,366.7344 571.4281,365.0938 Q570.1156,363.4375 570.1156,360.3125 Q570.1156,357.1875 571.4281,355.5313 Q572.7563,353.875 575.2563,353.875 Q575.9594,353.875 576.6,354.0313 Q577.2563,354.1875 577.8188,354.4844 L577.8188,357.2031 Q577.1938,356.625 576.6,356.3594 Q576.0063,356.0781 575.3813,356.0781 Q574.0375,356.0781 573.35,357.1563 Q572.6625,358.2188 572.6625,360.3125 Q572.6625,362.4063 573.35,363.4844 Q574.0375,364.5469 575.3813,364.5469 Q576.0063,364.5469 576.6,364.2813 Q577.1938,364 577.8188,363.4219 L577.8188,366.1406 Z " fill="#000000" /><text fill="#000000" font-family="sans-serif" font-size="14" lengthAdjust="spacing" textLength="136" x="590.15" y="365.3467">ServerConfiguration</text>
            <line style="stroke:#181818;stroke-width:0.5;" x1="555" x2="734" y1="376.5" y2="376.5" /><text fill="#000000" font-family="sans-serif" font-size="14" lengthAdjust="spacing" textLength="62" x="574" y="393.4951">server_id</text><text fill="#000000" font-family="sans-serif" font-size="14" lengthAdjust="spacing" textLength="114" x="574" y="409.792">comment: string</text>
            <polygon fill="none" points="565,415.0938,569,419.0938,565,423.0938,561,419.0938" style="stroke:#B38D22;stroke-width:1.0;" /><text fill="#000000" font-family="sans-serif" font-size="14" lengthAdjust="spacing" textLength="155" x="574" y="426.0889">has_one_attached :file</text>
            <line style="stroke:#181818;stroke-width:0.5;" x1="555" x2="734" y1="433.3906" y2="433.3906" />
        </g>
        <!--MD5=[067dfe80012d45ff94a0e59ff0bc5bf6]
link Location to Host-->
        <g id="link_Location_Host">
            <path codeLine="90" d="M317.5,71.1 C317.5,89.46 317.5,112.61 317.5,130.96 " fill="none" id="Location-Host" style="stroke:#181818;stroke-width:1.0;" /><text fill="#000000" font-family="sans-serif" font-size="13" lengthAdjust="spacing" textLength="8" x="308.675" y="91.3175">1</text><text fill="#000000" font-family="sans-serif" font-size="13" lengthAdjust="spacing" textLength="7" x="309.7781" y="119.8549">*</text>
        </g>
        <!--MD5=[98bb40404081c9409142fcd2a16e7a2d]
link Host to Server-->
        <g id="link_Host_Server">
            <path codeLine="91" d="M328.05,195.22 C333.52,211.45 340.64,232.52 348.17,254.82 " fill="none" id="Host-Server" style="stroke:#181818;stroke-width:1.0;" /><text fill="#000000" font-family="sans-serif" font-size="13" lengthAdjust="spacing" textLength="8" x="321.4009" y="215.4622">1</text><text fill="#000000" font-family="sans-serif" font-size="13" lengthAdjust="spacing" textLength="7" x="338.4449" y="243.9194">*</text>
        </g>
        <!--MD5=[2ae6832cfa9b6872f98777380031d694]
link SoftwareConnection to Server-->
        <g id="link_SoftwareConnection_Server">
            <path codeLine="92" d="M460.09,195.22 C454.68,211.45 447.66,232.52 440.23,254.82 " fill="none" id="SoftwareConnection-Server" style="stroke:#181818;stroke-width:1.0;" /><text fill="#000000" font-family="sans-serif" font-size="13" lengthAdjust="spacing" textLength="7" x="450.2211" y="215.4622">*</text><text fill="#000000" font-family="sans-serif" font-size="13" lengthAdjust="spacing" textLength="8" x="434.5121" y="243.9194">1</text>
        </g>
        <!--MD5=[af90eddff4a748015562140671816059]
link Server to Channel-->
        <g id="link_Server_Channel">
            <path codeLine="93" d="M269.92,516.82 C264.12,521.7 258.29,526.45 252.5,531 C213.22,561.83 192.13,555.02 157.5,591 C130.26,619.3 108.39,658.07 93.8,688.41 " fill="none" id="Server-Channel" style="stroke:#181818;stroke-width:1.0;" /><text fill="#000000" font-family="sans-serif" font-size="13" lengthAdjust="spacing" textLength="8" x="254.0847" y="520.9744">1</text><text fill="#000000" font-family="sans-serif" font-size="13" lengthAdjust="spacing" textLength="7" x="89.1625" y="677.6063">*</text>
        </g>
        <!--MD5=[830d6e454d5b2f37b38112460f363d60]
link Server to ServerConfiguration-->
        <g id="link_Server_ServerConfiguration">
            <path codeLine="94" d="M519.01,393 C530.61,393 542.21,393 553.82,393 " fill="none" id="Server-ServerConfiguration" style="stroke:#181818;stroke-width:1.0;" /><text fill="#000000" font-family="sans-serif" font-size="13" lengthAdjust="spacing" textLength="8" x="526.8411" y="389.6091">1</text><text fill="#000000" font-family="sans-serif" font-size="13" lengthAdjust="spacing" textLength="7" x="539.0207" y="389.4558">*</text>
        </g>
        <!--MD5=[faf6992dae569d3f9d8c0508873b900b]
link Server to ChannelStatistic-->
        <g id="link_Server_ChannelStatistic">
            <path codeLine="95" d="M356.41,531.13 C350.94,550.83 345.29,571.16 339.78,591 " fill="none" id="Server-ChannelStatistic" style="stroke:#181818;stroke-width:1.0;" /><text fill="#000000" font-family="sans-serif" font-size="13" lengthAdjust="spacing" textLength="8" x="346.1082" y="551.1604">1</text><text fill="#000000" font-family="sans-serif" font-size="13" lengthAdjust="spacing" textLength="7" x="334.6765" y="580.1438">*</text>
        </g>
        <!--MD5=[02fb209db51a37146f55d7f3b5bc6356]
link Channel to ChannelStatistic-->
        <g id="link_Channel_ChannelStatistic">
            <path codeLine="96" d="M140.15,737 C151.88,737 163.6,737 175.32,737 " fill="none" id="Channel-ChannelStatistic" style="stroke:#181818;stroke-width:1.0;" /><text fill="#000000" font-family="sans-serif" font-size="13" lengthAdjust="spacing" textLength="8" x="147.8773" y="733.2598">1</text><text fill="#000000" font-family="sans-serif" font-size="13" lengthAdjust="spacing" textLength="7" x="160.5395" y="733.6001">*</text>
        </g>
        <!--MD5=[fbc738c16708044cbeb4f448191a1908]
link ChannelCounter to Server-->
        <g id="link_ChannelCounter_Server">
            <path codeLine="97" d="M235.12,393 C246.75,393 258.37,393 269.99,393 " fill="none" id="ChannelCounter-Server" style="stroke:#181818;stroke-width:1.0;" /><text fill="#000000" font-family="sans-serif" font-size="13" lengthAdjust="spacing" textLength="7" x="242.8748" y="389.3967">*</text><text fill="#000000" font-family="sans-serif" font-size="13" lengthAdjust="spacing" textLength="8" x="254.1589" y="389.6091">1</text>
        </g>
        <!--MD5=[b5736cd7f93e7ae9006cc69f0c23953f]
link ChannelCounter to Channel-->
        <g id="link_ChannelCounter_Channel">
            <path codeLine="98" d="M131.61,490.63 C116.32,555.22 96.85,637.4 84.79,688.34 " fill="none" id="ChannelCounter-Channel" style="stroke:#181818;stroke-width:1.0;" /><text fill="#000000" font-family="sans-serif" font-size="13" lengthAdjust="spacing" textLength="7" x="122.7545" y="510.1051">*</text><text fill="#000000" font-family="sans-serif" font-size="13" lengthAdjust="spacing" textLength="8" x="77.8152" y="677.5264">1</text>
        </g>
        <!--MD5=[bbb9afc21c5fea95aabcd00d79c6ecf1]
link ChannelCounter to ChannelStatistic-->
        <g id="link_ChannelCounter_ChannelStatistic">
            <path codeLine="99" d="M195.47,490.63 C208.66,521.74 223.58,556.93 237.92,590.75 " fill="none" id="ChannelCounter-ChannelStatistic" style="stroke:#181818;stroke-width:1.0;" /><text fill="#000000" font-family="sans-serif" font-size="13" lengthAdjust="spacing" textLength="7" x="191.1046" y="510.1051">*</text><text fill="#000000" font-family="sans-serif" font-size="13" lengthAdjust="spacing" textLength="8" x="226.5385" y="579.8809">1</text>
        </g>
        <!--MD5=[987492a66c42a09406bf1d72e829ce6c]
link Server to Alert-->
        <g id="link_Server_Alert">
            <path codeLine="100" d="M451.02,531.16 C484.44,635.71 508.51,778.93 441.5,883 C406.61,937.18 367.24,914.38 309.5,943 C303.66,945.89 297.69,948.91 291.69,952 " fill="none" id="Server-Alert" style="stroke:#181818;stroke-width:1.0;" /><text fill="#000000" font-family="sans-serif" font-size="13" lengthAdjust="spacing" textLength="8" x="445.8922" y="551.192">1</text><text fill="#000000" font-family="sans-serif" font-size="13" lengthAdjust="spacing" textLength="7" x="299.6288" y="944.23">*</text>
        </g>
        <!--MD5=[27ed311f81354a581ed11163d2220eff]
link Channel to Alert-->
        <g id="link_Channel_Alert">
            <path codeLine="101" d="M94.46,785.69 C113.67,829.39 142.25,894.43 163.42,942.61 " fill="none" id="Channel-Alert" style="stroke:#181818;stroke-width:1.0;" /><text fill="#000000" font-family="sans-serif" font-size="13" lengthAdjust="spacing" textLength="24" x="71.664" y="805.3237">0..1</text><text fill="#000000" font-family="sans-serif" font-size="13" lengthAdjust="spacing" textLength="7" x="152.9659" y="931.74">*</text>
        </g>
        <!--MD5=[4a412d2b4f6ae338b5d74d2103219064]
link ChannelStatistic to Alert-->
        <g id="link_ChannelStatistic_Alert">
            <path codeLine="102" d="M241.07,883.25 C232.68,904.13 224.42,924.66 217.13,942.79 " fill="none" id="ChannelStatistic-Alert" style="stroke:#181818;stroke-width:1.0;" /><text fill="#000000" font-family="sans-serif" font-size="13" lengthAdjust="spacing" textLength="24" x="213.2184" y="903.7163">0..1</text><text fill="#000000" font-family="sans-serif" font-size="13" lengthAdjust="spacing" textLength="7" x="212.5505" y="931.9397">*</text>
        </g>
        <!--MD5=[ceed5b908f4994f3d88bd37b0b85a256]
link Server to Note-->
        <g id="link_Server_Note">
            <path codeLine="103" d="M480.73,531.11 C489.66,550.61 497.35,570.88 502.5,591 C534.7,716.72 544.29,760.13 502.5,883 C495.23,904.38 482.59,924.96 468.87,942.97 " fill="none" id="Server-Note" style="stroke:#181818;stroke-width:1.0;" /><text fill="#000000" font-family="sans-serif" font-size="13" lengthAdjust="spacing" textLength="8" x="477.227" y="551.1393">1</text><text fill="#000000" font-family="sans-serif" font-size="13" lengthAdjust="spacing" textLength="7" x="468.1995" y="932.1394">*</text>
        </g>
        <!--MD5=[b70cc4d2e094749d2eb05ba79b8eb3be]
link Channel to Note-->
        <g id="link_Channel_Note">
            <path codeLine="104" d="M91.35,785.67 C105.2,817.01 127.19,856.9 157.5,883 C212.54,930.39 244.93,909.76 309.5,943 C315.09,945.88 320.76,948.99 326.41,952.23 " fill="none" id="Channel-Note" style="stroke:#181818;stroke-width:1.0;" /><text fill="#000000" font-family="sans-serif" font-size="13" lengthAdjust="spacing" textLength="24" x="95.3611" y="805.301">0..1</text><text fill="#000000" font-family="sans-serif" font-size="13" lengthAdjust="spacing" textLength="7" x="311.6119" y="943.4941">*</text>
        </g>
        <!--MD5=[631f6531af220d90bdc65bbca1a614ce]
link ChannelStatistic to Note-->
        <g id="link_ChannelStatistic_Note">
            <path codeLine="105" d="M357.93,883.25 C366.32,904.13 374.58,924.66 381.87,942.79 " fill="none" id="ChannelStatistic-Note" style="stroke:#181818;stroke-width:1.0;" /><text fill="#000000" font-family="sans-serif" font-size="13" lengthAdjust="spacing" textLength="24" x="336.4691" y="903.7163">0..1</text><text fill="#000000" font-family="sans-serif" font-size="13" lengthAdjust="spacing" textLength="7" x="371.6839" y="931.9397">*</text>
        </g>
        <!--MD5=[7e15fadeac1a5307a36dba5a3c32829b]
@startuml
top to bottom direction

!theme mirco from .

class Location {
  ...
}
class Host {
  ...
}
class SoftwareConnection {
  ...
}

class Server  {
  host_id
  name: string
  uid: string
  description: text
  api_url: string
  api_user: string
  api_password_ciphertext: text
  api_user_has_full_access: boolean
  api_verify_ssl: boolean
  properties: jsonb
  last_channel_update: timestamp
  last_check: timestamp
  last_check_ok: timestamp
  manual_update: boolean
}

class Channel {
  uid: string
  properties: jsonb
  enabled: boolean
}

class ChannelStatistic {
  server_id
  channel_id
  server_uid: string
  channel_uid: string
  meta_data_id: integer
  name: string
  state: string
  status_type: string
  received: integer
  sent: integer
  error: integer
  filtered: integer
  queued: integer
  condition: string
  last_condition_change: timestamp
}

class ChannelCounter {
  channel_id
  server_id
  channel_statistic_id
  meta_data_id: integer
  received: integer
  sent: integer
  error: integer
  filtered: integer
  queued: integer
}

class Alert {
  channel_id
  server_id
  channel_statistic_id
  type: string : alert, recovery
  message: text
}

class Note {
  channel_id
  server_id
  channel_statistic_id
  user_id
  type: string : ack, mail
}

class ServerConfiguration {
  server_id
  comment: string
  # has_one_attached :file
}

Location "1" - - "*" Host
Host "1" - - "*" Server
SoftwareConnection "*" - - "1" "Server"
Server "1" - - "*" Channel
Server "1" - "*" ServerConfiguration
Server "1" - "*" ChannelStatistic
Channel "1" - "*" ChannelStatistic
ChannelCounter "*" - "1" Server
ChannelCounter "*" - - "1" Channel
ChannelCounter "*" - - "1" ChannelStatistic
Server "1" - - "*" Alert
Channel "0..1" - - "*" Alert
ChannelStatistic "0..1" - - "*" Alert
Server "1" - - "*" Note
Channel "0..1" - - "*" Note
ChannelStatistic "0..1" - - "*" Note

@enduml

@startuml
top to bottom direction


skinparam defaultTextAlignment center
skinparam roundCorner 10
skinparam shadowing 4.0
<style>
  circle {
    BackGroundColor #aaaaaaa
  }
  rectangle {
    BackGroundColor Gold
  }
  file {
    BackGroundColor Gold
  }
  queue {
    BackgroundColor #C7FCF6
    padding 10
  }
  document {
    BackGroundColor white
  }
</style>


skinparam class {
  BackgroundColor #FFF1D9
	HeaderBackgroundColor  #FFD080
}

class Location {
  ...
}
class Host {
  ...
}
class SoftwareConnection {
  ...
}

class Server  {
  host_id
  name: string
  uid: string
  description: text
  api_url: string
  api_user: string
  api_password_ciphertext: text
  api_user_has_full_access: boolean
  api_verify_ssl: boolean
  properties: jsonb
  last_channel_update: timestamp
  last_check: timestamp
  last_check_ok: timestamp
  manual_update: boolean
}

class Channel {
  uid: string
  properties: jsonb
  enabled: boolean
}

class ChannelStatistic {
  server_id
  channel_id
  server_uid: string
  channel_uid: string
  meta_data_id: integer
  name: string
  state: string
  status_type: string
  received: integer
  sent: integer
  error: integer
  filtered: integer
  queued: integer
  condition: string
  last_condition_change: timestamp
}

class ChannelCounter {
  channel_id
  server_id
  channel_statistic_id
  meta_data_id: integer
  received: integer
  sent: integer
  error: integer
  filtered: integer
  queued: integer
}

class Alert {
  channel_id
  server_id
  channel_statistic_id
  type: string : alert, recovery
  message: text
}

class Note {
  channel_id
  server_id
  channel_statistic_id
  user_id
  type: string : ack, mail
}

class ServerConfiguration {
  server_id
  comment: string
  # has_one_attached :file
}

Location "1" - - "*" Host
Host "1" - - "*" Server
SoftwareConnection "*" - - "1" "Server"
Server "1" - - "*" Channel
Server "1" - "*" ServerConfiguration
Server "1" - "*" ChannelStatistic
Channel "1" - "*" ChannelStatistic
ChannelCounter "*" - "1" Server
ChannelCounter "*" - - "1" Channel
ChannelCounter "*" - - "1" ChannelStatistic
Server "1" - - "*" Alert
Channel "0..1" - - "*" Alert
ChannelStatistic "0..1" - - "*" Alert
Server "1" - - "*" Note
Channel "0..1" - - "*" Note
ChannelStatistic "0..1" - - "*" Note

@enduml

PlantUML version 1.2022.5(Sat Apr 30 12:55:52 CEST 2022)
(GPL source distribution)
Java Runtime: OpenJDK Runtime Environment
JVM: OpenJDK 64-Bit Server VM
Default Encoding: UTF-8
Language: de
Country: DE
-->
    </g>
</svg>